<?xml version="1.0" encoding="UTF-8" standalone="no"?>
<!-- Svg Vector Icons : http://www.onlinewebfonts.com/icon -->

<svg
   xmlns:dc="http://purl.org/dc/elements/1.1/"
   xmlns:cc="http://creativecommons.org/ns#"
   xmlns:rdf="http://www.w3.org/1999/02/22-rdf-syntax-ns#"
   xmlns:svg="http://www.w3.org/2000/svg"
   xmlns="http://www.w3.org/2000/svg"
   xmlns:sodipodi="http://sodipodi.sourceforge.net/DTD/sodipodi-0.dtd"
   xmlns:inkscape="http://www.inkscape.org/namespaces/inkscape"
   version="1.1"
   x="0px"
   y="0px"
   viewBox="0 0 1000 1000"
   enable-background="new 0 0 1000 1000"
   xml:space="preserve"
   id="svg2"
   inkscape:version="0.91 r13725"
   sodipodi:docname="case-client.svg"><defs
     id="defs16" /><sodipodi:namedview
     pagecolor="#ffffff"
     bordercolor="#666666"
     borderopacity="1"
     objecttolerance="10"
     gridtolerance="10"
     guidetolerance="10"
     inkscape:pageopacity="0"
     inkscape:pageshadow="2"
     inkscape:window-width="1216"
     inkscape:window-height="803"
     id="namedview14"
     showgrid="false"
     inkscape:zoom="0.236"
     inkscape:cx="500"
     inkscape:cy="500"
     inkscape:window-x="0"
     inkscape:window-y="0"
     inkscape:window-maximized="0"
     inkscape:current-layer="svg2" /><metadata
     id="metadata4"> Svg Vector Icons : http://www.onlinewebfonts.com/icon <rdf:RDF><cc:Work
     rdf:about=""><dc:format>image/svg+xml</dc:format><dc:type
       rdf:resource="http://purl.org/dc/dcmitype/StillImage" /></cc:Work></rdf:RDF></metadata><g
     id="g6"
     style="stroke:none;stroke-opacity:1;fill:#f5f5f5;fill-opacity:1"><path
       d="M500,506.2c139.6,0,252.8-113.2,252.8-252.7C752.7,114,639.6,0.7,500,0.7C360.4,0.7,247.3,114,247.3,253.5C247.3,393,360.4,506.2,500,506.2 M628.1,524.8L500,683.2l-128-158.4c0,0-280.7-6.1-361.9,474.5h487h6.1h487C908.8,518.7,628.1,524.8,628.1,524.8"
       id="path8"
       style="stroke:none;stroke-opacity:1;fill:#f5f5f5;fill-opacity:1" /><path
       d="M500.2,518c15.6,0,33.5,2.6,44.5,4.4c-4.3,15.8-14.7,47.1-33.9,67.5h-21.5c-19.2-20.5-29.6-51.7-33.8-67.5C466.5,520.5,484.5,518,500.2,518"
       id="path10"
       style="stroke:none;stroke-opacity:1;fill:#f5f5f5;fill-opacity:1" /><path
       d="M499.3,906.9c-36-22.6-58.3-45.2-65.8-53.3c10.4-80.2,49.4-211.7,59.1-243.6h15c9.7,31.9,48.7,163.9,59,244C560,861.9,539.2,884.1,499.3,906.9"
       id="path12"
       style="stroke:none;stroke-opacity:1;fill:#f5f5f5;fill-opacity:1" /></g></svg>