<?xml version="1.0" encoding="UTF-8" standalone="no"?>
<!-- Svg Vector Icons : http://www.onlinewebfonts.com/icon -->

<svg
   xmlns:dc="http://purl.org/dc/elements/1.1/"
   xmlns:cc="http://creativecommons.org/ns#"
   xmlns:rdf="http://www.w3.org/1999/02/22-rdf-syntax-ns#"
   xmlns:svg="http://www.w3.org/2000/svg"
   xmlns="http://www.w3.org/2000/svg"
   xmlns:sodipodi="http://sodipodi.sourceforge.net/DTD/sodipodi-0.dtd"
   xmlns:inkscape="http://www.inkscape.org/namespaces/inkscape"
   version="1.1"
   x="0px"
   y="0px"
   viewBox="0 0 1000 1000"
   enable-background="new 0 0 1000 1000"
   xml:space="preserve"
   id="svg2"
   inkscape:version="0.91 r13725"
   sodipodi:docname="case-duration.svg"><defs
     id="defs14" /><sodipodi:namedview
     pagecolor="#ffffff"
     bordercolor="#666666"
     borderopacity="1"
     objecttolerance="10"
     gridtolerance="10"
     guidetolerance="10"
     inkscape:pageopacity="0"
     inkscape:pageshadow="2"
     inkscape:window-width="760"
     inkscape:window-height="480"
     id="namedview12"
     showgrid="false"
     inkscape:zoom="0.236"
     inkscape:cx="500"
     inkscape:cy="500"
     inkscape:window-x="0"
     inkscape:window-y="0"
     inkscape:window-maximized="0"
     inkscape:current-layer="svg2" /><metadata
     id="metadata4"> Svg Vector Icons : http://www.onlinewebfonts.com/icon <rdf:RDF><cc:Work
     rdf:about=""><dc:format>image/svg+xml</dc:format><dc:type
       rdf:resource="http://purl.org/dc/dcmitype/StillImage" /></cc:Work></rdf:RDF></metadata><g
     id="g6"
     style="fill:#f5f5f5;fill-opacity:1"><path
       d="M514.4,219.8c-22.1,0-39.9,17.9-39.9,39.9v265.2c0,22.1,17.9,39.9,39.9,39.9h281.1c22.1,0,39.9-17.9,39.9-39.9c0-22.1-17.9-39.9-39.9-39.9H554.3V259.8C554.3,237.7,536.5,219.8,514.4,219.8z"
       id="path8"
       style="fill:#f5f5f5;fill-opacity:1" /><path
       d="M539.3,49.3C290.8,49.3,88.7,251.5,88.7,500v0H10l119.5,144.5L249.1,500h-80.5v0c0-204.4,166.3-370.8,370.8-370.8c204.4,0,370.8,166.3,370.8,370.8c0,204.4-166.3,370.8-370.8,370.8c-123,0-237.8-61.1-307-163.5c-12.4-18.3-37.2-23.1-55.5-10.7c-18.3,12.4-23.1,37.2-10.7,55.5c84.1,124.4,223.6,198.7,373.2,198.7C787.8,950.7,990,748.5,990,500C990,251.5,787.8,49.3,539.3,49.3z"
       id="path10"
       style="fill:#f5f5f5;fill-opacity:1" /></g></svg>