<?xml version="1.0" encoding="UTF-8" standalone="no"?>
<!-- Svg Vector Icons : http://www.onlinewebfonts.com/icon -->

<svg
   xmlns:dc="http://purl.org/dc/elements/1.1/"
   xmlns:cc="http://creativecommons.org/ns#"
   xmlns:rdf="http://www.w3.org/1999/02/22-rdf-syntax-ns#"
   xmlns:svg="http://www.w3.org/2000/svg"
   xmlns="http://www.w3.org/2000/svg"
   xmlns:sodipodi="http://sodipodi.sourceforge.net/DTD/sodipodi-0.dtd"
   xmlns:inkscape="http://www.inkscape.org/namespaces/inkscape"
   version="1.1"
   x="0px"
   y="0px"
   viewBox="0 0 1000 1000"
   enable-background="new 0 0 1000 1000"
   xml:space="preserve"
   id="svg2"
   inkscape:version="0.91 r13725"
   sodipodi:docname="case-industry.svg"><defs
     id="defs20" /><sodipodi:namedview
     pagecolor="#ffffff"
     bordercolor="#666666"
     borderopacity="1"
     objecttolerance="10"
     gridtolerance="10"
     guidetolerance="10"
     inkscape:pageopacity="0"
     inkscape:pageshadow="2"
     inkscape:window-width="760"
     inkscape:window-height="480"
     id="namedview18"
     showgrid="false"
     inkscape:zoom="0.236"
     inkscape:cx="500"
     inkscape:cy="500"
     inkscape:window-x="0"
     inkscape:window-y="0"
     inkscape:window-maximized="0"
     inkscape:current-layer="svg2" /><metadata
     id="metadata4"> Svg Vector Icons : http://www.onlinewebfonts.com/icon <rdf:RDF><cc:Work
     rdf:about=""><dc:format>image/svg+xml</dc:format><dc:type
       rdf:resource="http://purl.org/dc/dcmitype/StillImage" /></cc:Work></rdf:RDF></metadata><g
     id="g6"
     style="fill:#f5f5f5;fill-opacity:1"><g
       transform="translate(0.000000,512.000000) scale(0.100000,-0.100000)"
       id="g8"
       style="fill:#f5f5f5;fill-opacity:1"><path
         d="M824.9,4986.4c-126.6-76.7-120.8-1.9-120.8-1587.9V1960.1l-90.1-13.4c-197.5-28.8-375.9-161.1-466-345.2l-47.9-95.9V-1419v-2924.7l47.9-95.9c59.5-122.7,174.5-237.8,297.3-297.3l95.9-47.9H5000h4458.9l95.9,47.9c122.7,59.4,237.8,174.5,297.3,297.3l47.9,95.9v3231.5v3231.5l-53.7,109.3c-109.3,222.5-331.8,352.9-581.1,337.5c-239.7-15.3-247.4-21.1-1066.3-836.2l-742.2-738.4l-5.8,563.8l-5.8,563.8l-53.7,109.3c-109.3,222.5-331.8,352.9-581.1,337.5c-239.7-15.3-247.4-21.1-1066.3-836.2l-742.2-738.4l-5.8,563.8l-5.8,563.8l-53.7,109.3c-109.3,222.5-331.8,352.9-581.1,337.5c-239.7-15.3-247.4-21.1-1064.4-836.2L2549,993.6l-7.7,255.1c-7.7,222.5-15.3,270.4-53.7,352.9c-88.2,182.2-276.2,322.2-469.9,349l-86.3,11.5v1440.3c0,1394.3-1.9,1442.2-38.4,1501.7c-69,113.1-105.5,120.8-579.2,120.8C922.7,5024.8,880.6,5021,824.9,4986.4z M8561.4-536.8c126.6-76.7,120.8-11.5,120.8-1495.9c0-1484.4,5.8-1419.2-120.8-1495.9c-59.5-38.3-124.7-38.3-3557.5-38.3c-3862.5,0-3569-9.6-3647.7,120.8c-36.4,59.5-38.4,105.5-38.4,1409.6c0,1488.2-5.7,1423,120.8,1499.7c59.5,38.3,124.7,38.3,3561.4,38.3C8436.7-498.5,8501.9-498.5,8561.4-536.8z"
         id="path10"
         style="fill:#f5f5f5;fill-opacity:1" /><path
         d="M2052.3-1150.5c-120.8-72.9-120.8-74.8-120.8-886c0-983.8-44.1-916.7,613.7-916.7c469.9,0,506.3,7.7,575.3,120.8c36.4,57.5,38.4,101.6,38.4,799.7c0,989.6,46,920.5-617.5,920.5C2150.1-1112.2,2107.9-1116,2052.3-1150.5z"
         id="path12"
         style="fill:#f5f5f5;fill-opacity:1" /><path
         d="M4507.1-1150.5c-120.8-72.9-120.8-74.8-120.8-886c0-983.8-44.1-916.7,613.7-916.7c469.9,0,506.3,7.7,575.3,120.8c36.4,57.5,38.4,101.6,38.4,799.7c0,989.6,46,920.5-617.5,920.5C4604.9-1112.2,4562.7-1116,4507.1-1150.5z"
         id="path14"
         style="fill:#f5f5f5;fill-opacity:1" /><path
         d="M6961.9-1150.5c-120.8-72.9-120.8-74.8-120.8-886c0-983.8-44.1-916.7,613.7-916.7c469.9,0,506.3,7.7,575.3,120.8c36.4,57.5,38.4,101.6,38.4,799.7c0,989.6,46,920.5-617.5,920.5C7059.7-1112.2,7017.5-1116,6961.9-1150.5z"
         id="path16"
         style="fill:#f5f5f5;fill-opacity:1" /></g></g></svg>