<?xml version="1.0" encoding="UTF-8" standalone="no"?>
<!-- Svg Vector Icons : http://www.onlinewebfonts.com/icon -->

<svg
   xmlns:dc="http://purl.org/dc/elements/1.1/"
   xmlns:cc="http://creativecommons.org/ns#"
   xmlns:rdf="http://www.w3.org/1999/02/22-rdf-syntax-ns#"
   xmlns:svg="http://www.w3.org/2000/svg"
   xmlns="http://www.w3.org/2000/svg"
   xmlns:sodipodi="http://sodipodi.sourceforge.net/DTD/sodipodi-0.dtd"
   xmlns:inkscape="http://www.inkscape.org/namespaces/inkscape"
   version="1.1"
   x="0px"
   y="0px"
   viewBox="0 0 1000 1000"
   enable-background="new 0 0 1000 1000"
   xml:space="preserve"
   id="svg2"
   inkscape:version="0.91 r13725"
   sodipodi:docname="agile-top-icon-3.svg"><defs
     id="defs20" /><sodipodi:namedview
     pagecolor="#ffffff"
     bordercolor="#666666"
     borderopacity="1"
     objecttolerance="10"
     gridtolerance="10"
     guidetolerance="10"
     inkscape:pageopacity="0"
     inkscape:pageshadow="2"
     inkscape:window-width="760"
     inkscape:window-height="480"
     id="namedview18"
     showgrid="false"
     inkscape:zoom="0.236"
     inkscape:cx="500"
     inkscape:cy="500"
     inkscape:window-x="0"
     inkscape:window-y="0"
     inkscape:window-maximized="0"
     inkscape:current-layer="svg2" /><metadata
     id="metadata4"> Svg Vector Icons : http://www.onlinewebfonts.com/icon <rdf:RDF><cc:Work
     rdf:about=""><dc:format>image/svg+xml</dc:format><dc:type
       rdf:resource="http://purl.org/dc/dcmitype/StillImage" /></cc:Work></rdf:RDF></metadata><g
     id="g6"
     style="fill:#d80032;fill-opacity:1"><path
       d="M565.3,75.3H434.7c-54.1,0-98,43.9-98,98s43.9,98,98,98h130.7c54.1,0,98-43.9,98-98S619.5,75.3,565.3,75.3z M565.3,206H434.7c-18,0-32.7-14.7-32.7-32.7s14.7-32.7,32.7-32.7h130.7c18,0,32.7,14.7,32.7,32.7S583.3,206,565.3,206z"
       id="path8"
       style="fill:#d80032;fill-opacity:1" /><path
       d="M565.3,402H434.7c-54.1,0-98,43.9-98,98c0,54.1,43.9,98,98,98h130.7c54.1,0,98-43.9,98-98C663.3,445.9,619.5,402,565.3,402z M565.3,532.7H434.7c-18,0-32.7-14.7-32.7-32.7s14.7-32.7,32.7-32.7h130.7c18,0,32.7,14.7,32.7,32.7S583.3,532.7,565.3,532.7z"
       id="path10"
       style="fill:#d80032;fill-opacity:1" /><path
       d="M565.3,728.7H434.7c-54.1,0-98,43.9-98,98c0,54.1,43.9,98,98,98h130.7c54.1,0,98-43.9,98-98C663.3,772.5,619.5,728.7,565.3,728.7z M565.3,859.3H434.7c-18,0-32.7-14.7-32.7-32.7c0-18,14.7-32.7,32.7-32.7h130.7c18,0,32.7,14.7,32.7,32.7C598,844.6,583.3,859.3,565.3,859.3z"
       id="path12"
       style="fill:#d80032;fill-opacity:1" /><path
       d="M206,794c-35,0-67.7-13.6-92.4-38.2c-24.6-24.7-38.2-57.5-38.2-92.4s13.6-67.7,38.2-92.4c24.7-24.7,57.5-38.2,92.4-38.2h65.3v-65.3H206c-108.2,0-196,87.8-196,196l0,0c0,108.2,87.8,196,196,196v65.3l98-98l-98-98V794z"
       id="path14"
       style="fill:#d80032;fill-opacity:1" /><path
       d="M794,140.7h-65.3V206H794c35,0,67.7,13.6,92.4,38.2c24.7,24.7,38.2,57.5,38.2,92.4s-13.6,67.7-38.2,92.4c-24.7,24.6-57.5,38.2-92.4,38.2V402l-98,98l98,98v-65.3c108.2,0,196-87.8,196-196l0,0C990,228.4,902.2,140.7,794,140.7z"
       id="path16"
       style="fill:#d80032;fill-opacity:1" /></g></svg>