<?xml version="1.0" encoding="UTF-8" standalone="no"?>
<!-- Svg Vector Icons : http://www.onlinewebfonts.com/icon -->

<svg
   xmlns:dc="http://purl.org/dc/elements/1.1/"
   xmlns:cc="http://creativecommons.org/ns#"
   xmlns:rdf="http://www.w3.org/1999/02/22-rdf-syntax-ns#"
   xmlns:svg="http://www.w3.org/2000/svg"
   xmlns="http://www.w3.org/2000/svg"
   xmlns:sodipodi="http://sodipodi.sourceforge.net/DTD/sodipodi-0.dtd"
   xmlns:inkscape="http://www.inkscape.org/namespaces/inkscape"
   version="1.1"
   x="0px"
   y="0px"
   viewBox="0 0 1000 1000"
   enable-background="new 0 0 1000 1000"
   xml:space="preserve"
   id="svg2"
   inkscape:version="0.91 r13725"
   sodipodi:docname="code-top-icon.svg"><defs
     id="defs18" /><sodipodi:namedview
     pagecolor="#ffffff"
     bordercolor="#666666"
     borderopacity="1"
     objecttolerance="10"
     gridtolerance="10"
     guidetolerance="10"
     inkscape:pageopacity="0"
     inkscape:pageshadow="2"
     inkscape:window-width="1294"
     inkscape:window-height="767"
     id="namedview16"
     showgrid="false"
     inkscape:zoom="0.236"
     inkscape:cx="38.135593"
     inkscape:cy="500"
     inkscape:window-x="0"
     inkscape:window-y="0"
     inkscape:window-maximized="0"
     inkscape:current-layer="g6" /><metadata
     id="metadata4"> Svg Vector Icons : http://www.onlinewebfonts.com/icon <rdf:RDF><cc:Work
     rdf:about=""><dc:format>image/svg+xml</dc:format><dc:type
       rdf:resource="http://purl.org/dc/dcmitype/StillImage" /></cc:Work></rdf:RDF></metadata><g
     id="g6"><path
       d="M370,455.2c-6.5,0-12.3,2.7-16.4,7l0,0l-90.5,90.3c-4.9,4.2-8.1,10.4-8.1,17.3c0,6.4,2.7,12.2,7,16.4l0,0l91.8,91.7l0,0c4.1,4,9.8,6.5,16,6.5c12.7,0,23-10.3,23-22.9c0-6.2-2.5-11.8-6.5-15.9l0,0l-75.7-75.6l75.5-75.3l0,0c4.3-4.2,7-10,7-16.4C393,465.4,382.7,455.2,370,455.2z"
       id="path8"
       style="fill:#1dc3de;fill-opacity:1" /><path
       d="M561.1,386.4c-9.9,0-18.4,6.3-21.6,15.1L417.2,721.9c-1,2.5-1.5,5.3-1.5,8.2c0,12.7,10.3,22.9,23,22.9c9.9,0,18.4-6.3,21.6-15.1l122.3-320.3c1-2.6,1.5-5.3,1.5-8.2C584.1,396.7,573.8,386.4,561.1,386.4z"
       id="path10"
       style="fill:#1dc3de;fill-opacity:1" /><path
       d="M944.1,72.2H55.9C30.6,72.2,10,92.7,10,118v764c0,25.3,20.6,45.8,45.9,45.8h888.1c25.4,0,45.9-20.5,45.9-45.8V118C990,92.7,969.4,72.2,944.1,72.2z M289.7,138.7c15.8,0,28.6,12.8,28.6,28.6s-12.8,28.6-28.6,28.6s-28.6-12.8-28.6-28.6S273.9,138.7,289.7,138.7z M198.7,138.7c15.8,0,28.6,12.8,28.6,28.6s-12.8,28.6-28.6,28.6s-28.6-12.8-28.6-28.6S182.9,138.7,198.7,138.7z M103.8,138.7c15.8,0,28.6,12.8,28.6,28.6s-12.8,28.6-28.6,28.6c-15.8,0-28.6-12.8-28.6-28.6S88,138.7,103.8,138.7z M944.1,882H55.9V255.5h45.9h796.3h45.9V882z"
       id="path12"
       style="fill:#1dc3de;fill-opacity:1" /><path
       d="M736.9,552.4l-90.5-90.3l0,0c-4.2-4.3-10-7-16.5-7c-12.7,0-23,10.3-23,22.9c0,6.5,2.7,12.3,7,16.4l0,0l75.5,75.3l-75.7,75.6l0,0c-4,4.1-6.5,9.7-6.5,15.9c0,12.7,10.3,22.9,23,22.9c6.2,0,11.8-2.5,16-6.5l0,0l91.8-91.6l0,0c4.3-4.2,7-10,7-16.4C745,562.8,741.8,556.6,736.9,552.4z"
       id="path14"
       style="fill:#1dc3de;fill-opacity:1" /></g></svg>