<?xml version="1.0" encoding="UTF-8" standalone="no"?>
<!-- Svg Vector Icons : http://www.onlinewebfonts.com/icon -->

<svg
   xmlns:dc="http://purl.org/dc/elements/1.1/"
   xmlns:cc="http://creativecommons.org/ns#"
   xmlns:rdf="http://www.w3.org/1999/02/22-rdf-syntax-ns#"
   xmlns:svg="http://www.w3.org/2000/svg"
   xmlns="http://www.w3.org/2000/svg"
   xmlns:sodipodi="http://sodipodi.sourceforge.net/DTD/sodipodi-0.dtd"
   xmlns:inkscape="http://www.inkscape.org/namespaces/inkscape"
   version="1.1"
   x="0px"
   y="0px"
   viewBox="0 0 1000 1000"
   enable-background="new 0 0 1000 1000"
   xml:space="preserve"
   id="svg2"
   inkscape:version="0.91 r13725"
   sodipodi:docname="communication-top-icon-2.svg"><defs
     id="defs12" /><sodipodi:namedview
     pagecolor="#ffffff"
     bordercolor="#666666"
     borderopacity="1"
     objecttolerance="10"
     gridtolerance="10"
     guidetolerance="10"
     inkscape:pageopacity="0"
     inkscape:pageshadow="2"
     inkscape:window-width="760"
     inkscape:window-height="480"
     id="namedview10"
     showgrid="false"
     inkscape:zoom="0.236"
     inkscape:cx="500"
     inkscape:cy="500"
     inkscape:window-x="0"
     inkscape:window-y="0"
     inkscape:window-maximized="0"
     inkscape:current-layer="svg2" /><metadata
     id="metadata4"> Svg Vector Icons : http://www.onlinewebfonts.com/icon <rdf:RDF><cc:Work
     rdf:about=""><dc:format>image/svg+xml</dc:format><dc:type
       rdf:resource="http://purl.org/dc/dcmitype/StillImage" /></cc:Work></rdf:RDF></metadata><g
     id="g6"
     style="fill:#d80032;fill-opacity:1"><path
       d="M878.5,428.6c-15.8,9.3-17.6,78.8,71.1,120.8c0,0-125.6,19.8-205.2-80.8c-19.7,2.8-40.1,8.9-60.9,8.9c-171,0-275.3-98.5-275.3-221.7c0-123.2,104.3-223.1,275.3-223.1c171.1,0,306.5,99.9,306.5,223.1C990,325.4,948.2,387.6,878.5,428.6z M350.4,277.6c7.7,136.3,127.6,250.5,311.8,262c20.7,0.8,41.1-4.2,61-7.3c0-0.1,0-0.2,0-0.2l5.4-1.4c53.1,54.6,120.3,65,159,65.9c-38.8,148.9-187,258.5-409.7,258.5c-31.8,0-62.9-9.2-93-13.5C263.3,995.3,71.6,965.1,71.6,965.1C207,901,204.3,794.8,180.2,780.7C73.9,718.2,10,623.2,10,516.6C10,356.3,160.4,222.3,366.4,186C355.1,214.8,349.4,245.7,350.4,277.6z"
       id="path8"
       style="fill:#d80032;fill-opacity:1" /></g></svg>