<?xml version="1.0" encoding="UTF-8" standalone="no"?>
<!-- Svg Vector Icons : http://www.onlinewebfonts.com/icon -->

<svg
   xmlns:dc="http://purl.org/dc/elements/1.1/"
   xmlns:cc="http://creativecommons.org/ns#"
   xmlns:rdf="http://www.w3.org/1999/02/22-rdf-syntax-ns#"
   xmlns:svg="http://www.w3.org/2000/svg"
   xmlns="http://www.w3.org/2000/svg"
   xmlns:sodipodi="http://sodipodi.sourceforge.net/DTD/sodipodi-0.dtd"
   xmlns:inkscape="http://www.inkscape.org/namespaces/inkscape"
   version="1.1"
   x="0px"
   y="0px"
   viewBox="0 0 1000 1000"
   enable-background="new 0 0 1000 1000"
   xml:space="preserve"
   id="svg2"
   inkscape:version="0.91 r13725"
   sodipodi:docname="4093c598675732d9611e6faecccd0e92.svg"><defs
     id="defs36" /><sodipodi:namedview
     pagecolor="#ffffff"
     bordercolor="#666666"
     borderopacity="1"
     objecttolerance="10"
     gridtolerance="10"
     guidetolerance="10"
     inkscape:pageopacity="0"
     inkscape:pageshadow="2"
     inkscape:window-width="760"
     inkscape:window-height="480"
     id="namedview34"
     showgrid="false"
     inkscape:zoom="0.236"
     inkscape:cx="500"
     inkscape:cy="500"
     inkscape:window-x="0"
     inkscape:window-y="0"
     inkscape:window-maximized="0"
     inkscape:current-layer="svg2" /><metadata
     id="metadata4"> Svg Vector Icons : http://www.onlinewebfonts.com/icon <rdf:RDF><cc:Work
     rdf:about=""><dc:format>image/svg+xml</dc:format><dc:type
       rdf:resource="http://purl.org/dc/dcmitype/StillImage" /></cc:Work></rdf:RDF></metadata><g
     id="g6"
     style="fill:#d80032;fill-opacity:1"><g
       transform="translate(0.000000,512.000000) scale(0.100000,-0.100000)"
       id="g8"
       style="fill:#d80032;fill-opacity:1"><path
         d="M4875.6,4993.9c-80.4-34.5-157-130.2-181.9-225.9c-13.4-47.9-19.1-233.6-15.3-501.6c5.7-402,7.7-426.9,49.8-493.9c63.2-101.5,149.3-149.3,271.9-149.3c122.5,0,208.7,47.9,271.9,149.3c42.1,67,44,91.9,49.8,493.9c3.8,269.9,0,451.8-13.4,501.6C5254.6,4967.1,5053.6,5072.4,4875.6,4993.9z"
         id="path10"
         style="fill:#d80032;fill-opacity:1" /><path
         d="M2614.6,4237.7c-149.3-68.9-229.7-243.1-181.9-386.7c28.7-86.2,493.9-739,562.9-790.7c80.4-59.4,268-57.4,354.2,3.8c114.9,82.3,166.6,248.9,118.7,377.2c-36.4,93.8-513.1,746.6-570.5,779.2C2807.9,4274.1,2704.5,4279.8,2614.6,4237.7z"
         id="path12"
         style="fill:#d80032;fill-opacity:1" /><path
         d="M7182.5,4256.8c-26.8-9.6-68.9-26.8-93.8-42.1c-47.9-30.6-526.5-693-557.1-773.4c-47.9-128.3,3.8-294.8,118.7-377.2c86.1-61.3,273.8-63.2,354.2-3.8c68.9,51.7,534.1,704.5,562.9,790.7c47.9,143.6-34.5,319.7-181.9,386.7C7301.2,4276,7259.1,4279.8,7182.5,4256.8z"
         id="path14"
         style="fill:#d80032;fill-opacity:1" /><path
         d="M4598,3058.4c-446.1-82.3-873-308.2-1206.1-641.4c-654.8-654.8-863.4-1640.7-532.2-2521.4c84.2-224,187.6-403.9,392.5-675.8c189.5-254.6,453.7-645.2,595.4-882.6l99.6-166.6v-384.8v-384.8h1053h1053v386.7v384.8l118.7,193.4c147.4,245,425,652.9,624.1,920.9c237.4,317.8,377.2,624.1,455.6,989.8c42.1,193.4,47.9,704.5,9.6,896c-42.1,212.5-135.9,480.5-235.5,670.1c-333.1,643.3-941.9,1095.1-1640.7,1215.7C5187.6,3092.8,4791.3,3092.8,4598,3058.4z"
         id="path16"
         style="fill:#d80032;fill-opacity:1" /><path
         d="M1190.2,2258.1c-97.6-51.7-172.3-172.3-172.3-279.5c1.9-101.5,65.1-224,137.8-269.9c97.6-59.4,800.2-287.2,886.4-287.2c275.7,0,419.3,342.7,224,536c-61.3,61.3-122.5,88.1-482.5,206.8c-225.9,76.6-434.6,137.8-461.4,137.8C1295.5,2302.1,1236.1,2283,1190.2,2258.1z"
         id="path18"
         style="fill:#d80032;fill-opacity:1" /><path
         d="M8202.9,2162.4c-423.1-145.5-484.4-178.1-534.1-294.8c-88.1-202.9,63.2-446.1,277.6-446.1c101.5,0,821.3,231.7,909.4,292.9c63.2,46,124.4,170.4,126.3,256.5c0,170.4-158.9,333.1-319.7,329.3C8633.7,2300.2,8426.9,2237.1,8202.9,2162.4z"
         id="path20"
         style="fill:#d80032;fill-opacity:1" /><path
         d="M1584.6-33.5c-423.1-139.8-486.3-176.2-539.9-300.6c-55.5-130.2-7.7-308.2,107.2-388.6c118.7-84.2,202.9-76.6,624.1,65.1c210.6,68.9,409.7,143.6,444.2,164.7c72.8,45.9,135.9,168.5,137.8,269.9c0,107.2-74.7,227.8-172.3,279.5c-45.9,24.9-109.1,44-141.7,42.1C2011.5,98.6,1804.7,37.3,1584.6-33.5z"
         id="path22"
         style="fill:#d80032;fill-opacity:1" /><path
         d="M7814.3,56.5C7716.6,4.8,7642-115.8,7642-223.1c1.9-101.5,65.1-224,137.9-269.9c34.5-21.1,233.6-95.7,444.2-164.7c314-105.3,394.4-126.4,470.9-118.7c273.8,26.8,382.9,363.8,180,555.2c-42.1,38.3-164.6,88.1-467.1,187.6c-225.9,72.7-432.7,134-459.5,134C7919.6,100.5,7860.2,81.3,7814.3,56.5z"
         id="path24"
         style="fill:#d80032;fill-opacity:1" /><path
         d="M3035.7-1526.8c-63.2-32.6-124.4-103.4-331.2-392.5c-139.8-195.3-262.3-381-273.8-413.5c-45.9-135.9,28.7-315.9,162.7-382.9c95.7-49.8,239.3-42.1,315.9,15.3c55.5,40.2,478.6,618.4,541.8,737.1c63.2,122.5,42.1,262.3-55.5,367.6C3292.3-1486.6,3167.8-1461.7,3035.7-1526.8z"
         id="path26"
         style="fill:#d80032;fill-opacity:1" /><path
         d="M6734.5-1507.7c-178-53.6-273.8-287.2-185.7-455.7c63.2-118.7,486.3-696.9,541.8-737.1c26.8-21.1,93.8-42.1,143.6-46c222.1-23,394.4,185.7,335,400.1c-9.6,38.3-134,229.7-273.8,425c-210.6,294.8-268,361.8-333.1,394.4C6878.1-1486.6,6824.5-1480.9,6734.5-1507.7z"
         id="path28"
         style="fill:#d80032;fill-opacity:1" /><path
         d="M4192.1-2981.8c-134-9.6-155.1-15.3-206.8-67c-109.1-109.2-88.1-292.9,42.1-373.3c61.3-36.4,93.8-38.3,974.5-38.3h911.3l65.1,44c76.6,51.7,126.4,170.4,105.3,252.7c-7.7,28.7-42.1,82.3-78.5,118.7l-63.2,63.2l-199.1,1.9c-107.2,0-469,1.9-800.2,3.8C4611.4-2974.1,4272.5-2976.1,4192.1-2981.8z"
         id="path30"
         style="fill:#d80032;fill-opacity:1" /><path
         d="M4048.5-3918c15.3-130.2,70.8-229.7,181.9-331.2c84.2-74.6,135.9-101.5,283.3-139.7c26.8-7.7,53.6-42.1,74.7-97.6c45.9-120.6,116.8-197.2,229.7-248.9c124.4-59.4,239.3-59.4,367.6,0c105.3,49.8,197.2,155.1,235.5,269.9c13.4,40.2,38.3,68.9,63.2,76.6c166.6,44,202.9,63.2,302.5,162.7c109.1,107.2,170.4,233.6,170.4,348.4v53.6h-959.2H4037L4048.5-3918z"
         id="path32"
         style="fill:#d80032;fill-opacity:1" /></g></g></svg>