<?xml version="1.0" encoding="UTF-8" standalone="no"?>
<!-- Svg Vector Icons : http://www.onlinewebfonts.com/icon -->

<svg
   xmlns:dc="http://purl.org/dc/elements/1.1/"
   xmlns:cc="http://creativecommons.org/ns#"
   xmlns:rdf="http://www.w3.org/1999/02/22-rdf-syntax-ns#"
   xmlns:svg="http://www.w3.org/2000/svg"
   xmlns="http://www.w3.org/2000/svg"
   xmlns:sodipodi="http://sodipodi.sourceforge.net/DTD/sodipodi-0.dtd"
   xmlns:inkscape="http://www.inkscape.org/namespaces/inkscape"
   version="1.1"
   x="0px"
   y="0px"
   viewBox="0 0 1000 1000"
   enable-background="new 0 0 1000 1000"
   xml:space="preserve"
   id="svg2"
   inkscape:version="0.91 r13725"
   sodipodi:docname="iot-top-blue.svg"><defs
     id="defs12" /><sodipodi:namedview
     pagecolor="#ffffff"
     bordercolor="#666666"
     borderopacity="1"
     objecttolerance="10"
     gridtolerance="10"
     guidetolerance="10"
     inkscape:pageopacity="0"
     inkscape:pageshadow="2"
     inkscape:window-width="1920"
     inkscape:window-height="1148"
     id="namedview10"
     showgrid="false"
     inkscape:zoom="0.236"
     inkscape:cx="500"
     inkscape:cy="500"
     inkscape:window-x="-8"
     inkscape:window-y="-8"
     inkscape:window-maximized="1"
     inkscape:current-layer="svg2" /><metadata
     id="metadata4"> Svg Vector Icons : http://www.onlinewebfonts.com/icon <rdf:RDF><cc:Work
     rdf:about=""><dc:format>image/svg+xml</dc:format><dc:type
       rdf:resource="http://purl.org/dc/dcmitype/StillImage" /><dc:title></dc:title></cc:Work></rdf:RDF></metadata><g
     id="g6"
     style="fill:#005584;fill-opacity:1"><path
       d="M500,10C229.3,10,10,229.3,10,500c0,270.7,219.3,490,490,490c270.7,0,490-219.3,490-490C990,229.3,770.7,10,500,10z M902.9,563.5c-13.1-1-26-2.3-38.5-3.9c-6.3-26.1-25.4-47.3-50.2-56.8c-3.9-45.3-12.1-87-22.6-124.2c16.9-14.8,27.7-36.3,27.7-60.5c0-1.8-0.4-3.4-0.5-5.2c17.3-4.8,31-7.1,39.7-8.2c31.8,58.1,49.9,124.6,49.9,195.3C908.3,521.6,906.1,542.7,902.9,563.5z M693.4,830.4l-1.7,3.6c-45.6-7.2-85.8-20.3-121.1-37.6c3.7-10.5,6.1-21.6,6.1-33.4c0-38.9-22.1-72.4-54.3-89.6c9.2-40.4,20.7-76.2,33.9-108.2c5.4,0.8,10.8,1.7,16.4,1.7c21.3,0,41.1-6.5,57.4-17.7c22.7,12.6,47.3,24,73.9,34c1.7,29.9,19.2,55.5,44.6,68.3C739.9,707.8,722.7,767.8,693.4,830.4z M332.2,871.9l-4.9-5.9c-41.2-49.1-77.9-189.3-54.3-342.8c11.2,34.4,25,68.4,42.1,101.3c16.7,32.1,38.2,66.4,65.3,99.6c-5,12-7.8,25.1-7.8,38.8c0,42.8,26.3,79.3,63.5,94.5c-0.6,14.8-1,29.7-1,45.1C398.9,896.9,364.4,886.4,332.2,871.9z M363.2,115.8c1.7,17.7,4.8,41.1,10.3,68.1c-28.6,27.7-52.7,57.1-72.5,87.1c2.6-56.5,13.4-106,30.5-142.4C341.8,123.8,352.4,119.6,363.2,115.8z M569.9,130.2c22.7,11.9,67.9,57.3,108.5,131.4c-13.8,14.8-22.5,34.5-22.5,56.4c0,3.3,0.6,6.3,1,9.5c-15.9,12.3-31.8,26.1-47.5,42.1c-11.4-4.4-23.7-7.1-36.7-7.1c-18.8,0-36.2,5.4-51.3,14.3c-42.6-56.3-66.8-116.6-80.7-168.2C476.1,178.8,518.7,151.9,569.9,130.2z M668,500.3c4.1-11.1,6.7-23,6.7-35.6c0-20.9-6.3-40.2-17-56.3c9.8-9.8,19.7-18.7,29.7-26.8c12.9,10,28.7,16.2,46.1,17.1c8.7,31.7,15.5,66.9,19.1,105c-11.3,4.9-21,12.4-29,21.5C703.9,517.7,685.4,509.4,668,500.3z M460.5,662.4c-13.6,1.9-26.2,6.4-37.5,13.1c-21-26.9-38-54.4-51.4-80.3c-16.9-32.5-30.5-66.4-41.1-100.6c27.7-18.2,46.1-49.5,46.1-85.2c0-31.9-15-60-37.9-78.7c14.8-25.5,32.7-50.8,54.1-75.1c17.6,53,45,111.3,87.6,166c-6.1,13.2-9.8,27.7-9.8,43.2c0,28.1,11.4,53.6,29.8,72.1C484.6,573.8,471.1,615.5,460.5,662.4z M820.6,247.9c-8.8,2.2-18.7,4.9-29.4,8.3c-14.3-12.6-32.9-20.5-53.6-20.5c-1.2,0-2.4,0.3-3.5,0.4c-25.2-46.7-53.2-85.3-80-114C720,149.1,777.1,192.8,820.6,247.9z M502.9,91.8C475,106.2,449.7,122,426.7,139c-2.2-16.2-3.3-29.8-3.8-39.8c25-4.8,50.7-7.5,77.1-7.5C501,91.7,501.9,91.8,502.9,91.8z M91.7,500c0-130.4,61.7-246.5,157.3-321.3c-8.7,40.6-12.9,86.7-11.7,135.8c-37.8,14.9-64.8,51.7-64.8,94.8c0,33.7,16.5,63.3,41.7,81.9C193,605,202.5,719.3,228.3,803.9C144.7,729.1,91.7,620.7,91.7,500z M498.4,908.3v-2.1c0.1-15.2,0.5-29.9,1-44.3c11.4-2.8,22-7.3,31.5-13.6c30,15.6,63.2,28.7,99.9,38.3c-41.1,14-85,21.8-130.8,21.8C499.4,908.3,498.9,908.3,498.4,908.3z M770.4,805.1c19.7-51.7,32.4-101.5,39.3-149c19.1-6.2,35-19.1,45.2-36c11,1.4,22.6,2.4,34.2,3.5C866.5,694.5,824.9,756.8,770.4,805.1z"
       id="path8"
       style="fill:#005584;fill-opacity:1" /></g></svg>