<?xml version="1.0" encoding="UTF-8" standalone="no"?>
<!-- Svg Vector Icons : http://www.onlinewebfonts.com/icon -->

<svg
   xmlns:dc="http://purl.org/dc/elements/1.1/"
   xmlns:cc="http://creativecommons.org/ns#"
   xmlns:rdf="http://www.w3.org/1999/02/22-rdf-syntax-ns#"
   xmlns:svg="http://www.w3.org/2000/svg"
   xmlns="http://www.w3.org/2000/svg"
   xmlns:sodipodi="http://sodipodi.sourceforge.net/DTD/sodipodi-0.dtd"
   xmlns:inkscape="http://www.inkscape.org/namespaces/inkscape"
   version="1.1"
   x="0px"
   y="0px"
   viewBox="0 0 1000 1000"
   enable-background="new 0 0 1000 1000"
   xml:space="preserve"
   id="svg2"
   inkscape:version="0.91 r13725"
   sodipodi:docname="java-tech.svg"><defs
     id="defs28" /><sodipodi:namedview
     pagecolor="#ffffff"
     bordercolor="#666666"
     borderopacity="1"
     objecttolerance="10"
     gridtolerance="10"
     guidetolerance="10"
     inkscape:pageopacity="0"
     inkscape:pageshadow="2"
     inkscape:window-width="1920"
     inkscape:window-height="1148"
     id="namedview26"
     showgrid="false"
     inkscape:zoom="0.236"
     inkscape:cx="-1190.678"
     inkscape:cy="579.07962"
     inkscape:window-x="-8"
     inkscape:window-y="-8"
     inkscape:window-maximized="1"
     inkscape:current-layer="svg2" /><metadata
     id="metadata4"> Svg Vector Icons : http://www.onlinewebfonts.com/icon <rdf:RDF><cc:Work
     rdf:about=""><dc:format>image/svg+xml</dc:format><dc:type
       rdf:resource="http://purl.org/dc/dcmitype/StillImage" /></cc:Work></rdf:RDF></metadata><g
     id="g6"
     style="fill:#a7a7a7;fill-opacity:1"><g
       transform="translate(0.000000,253.000000) scale(0.100000,-0.100000)"
       id="g8"
       style="fill:#a7a7a7;fill-opacity:1"><path
         d="M6061.9,2261.3c55-448.4-145.6-951.9-546.8-1365c-133.7-133.7-452.4-413-712-621.5c-794.6-633.3-1081.8-987.3-1081.8-1337.5c0-247.8,59-424.8,240-700.2c157.3-243.9,975.6-1121.1,1011-1081.8c11.8,7.9-110.1,204.6-267.5,436.7c-381.6,566.4-487.8,798.5-487.8,1097.5c0,358,173.1,653,621.5,1058.2C5735.4,554,6061.9,947.4,6183.8,1372.3c106.2,361.9,66.9,826.1-82.6,1014.9C6042.2,2461.9,6042.2,2450.1,6061.9,2261.3z"
         id="path10"
         style="fill:#a7a7a7;fill-opacity:1" /><path
         d="M6769.9,345.6C5373.5-161.9,4787.3-909.3,5153.2-1707.9c59-125.9,165.2-299,236-385.5c287.2-350.1,334.4-621.5,161.3-920.5c-102.3-181-82.6-181,157.3,15.7c318.6,251.7,476,582.2,413,865.4c-19.7,78.7-129.8,287.2-251.8,464.2c-118,173.1-239.9,401.3-263.6,499.6c-47.2,169.2-43.3,200.6,59,401.2c153.4,322.6,558.6,660.9,1424,1195.9C7202.6,499,7155.4,487.2,6769.9,345.6z"
         id="path12"
         style="fill:#a7a7a7;fill-opacity:1" /><path
         d="M7666.8-2868.3c-267.5-51.1-346.2-118-110.1-90.5c523.2,59,861.5-440.6,617.6-912.6c-106.2-208.5-491.7-562.5-802.5-739.5c-279.3-157.3-263.6-177,51.1-66.9c542.9,184.9,987.4,495.6,1140.8,798.6c98.3,192.7,98.3,523.1,4,672.6c-102.3,153.4-314.7,298.9-476,326.5c-78.7,11.8-169.2,27.5-200.6,35.4C7859.6-2840.8,7757.3-2848.6,7666.8-2868.3z"
         id="path14"
         style="fill:#a7a7a7;fill-opacity:1" /><path
         d="M3139.1-3021.7c-381.6-86.5-908.7-306.8-967.7-401.2c-102.3-165.2,346.2-287.2,1302.1-354c1160.4-78.7,2840.1,82.6,3304.3,314.7c114.1,55.1,200.6,110.1,192.7,118c-7.9,7.8-208.5-15.8-444.5-47.2c-1400.4-200.6-3272.8-232.1-3595.4-63c-188.8,102.3,15.7,255.7,554.7,417c263.6,82.6,279.3,90.5,137.7,90.5C3536.4-2950.9,3320.1-2982.4,3139.1-3021.7z"
         id="path16"
         style="fill:#a7a7a7;fill-opacity:1" /><path
         d="M3229.6-4158.6c-342.2-157.3-373.7-334.4-82.6-476c586.1-279.3,2088.8-287.1,3284.6-7.8l291.1,66.8l-200.6,125.9l-200.6,125.9l-306.8-55.1c-621.5-114.1-1337.5-149.4-1903.9-106.2c-295,23.6-582.2,62.9-641.2,86.5c-125.9,47.3-169.2,141.6-106.2,240c23.6,43.3,39.3,74.7,35.4,74.7C3390.9-4083.8,3316.1-4119.2,3229.6-4158.6z"
         id="path18"
         style="fill:#a7a7a7;fill-opacity:1" /><path
         d="M3485.3-5228.5c-251.8-102.3-310.8-291.1-125.9-420.9c133.8-94.4,393.4-184.9,696.3-251.8c302.9-59,1223.4-59,1553.8,3.9c330.4,62.9,904.8,236,904.8,271.4c0,15.7-114.1,78.7-251.8,141.6c-251.7,110.2-255.7,110.2-542.9,59c-397.3-74.8-1723-66.8-1939.3,7.9c-121.9,43.3-157.3,74.7-153.4,145.6C3630.8-5177.4,3623-5173.4,3485.3-5228.5z"
         id="path20"
         style="fill:#a7a7a7;fill-opacity:1" /><path
         d="M2187.2-5948.4c-275.4-74.7-653-259.7-747.4-358c-212.4-224.2-3.9-338.3,806.4-448.4C3029-6861,3800-6916.1,4555.3-6916.1c1982.6,0,3862.9,428.8,3646.5,834c-19.7,39.3-55,70.8-78.7,70.8c-23.6,0-27.5-15.7-15.7-39.3c47.2-74.7-59-184.9-251.8-271.4c-731.7-314.7-3681.9-452.4-5074.5-240c-365.8,59-778.9,184.9-802.5,251.8c-43.3,114.1,236,267.5,660.9,357.9l236,51.2h-255.7C2478.3-5901.2,2285.5-5920.8,2187.2-5948.4z"
         id="path22"
         style="fill:#a7a7a7;fill-opacity:1" /><path
         d="M8579.5-6566c-102.3-161.3-971.6-420.9-1821.3-546.8c-1109.3-161.3-2914.9-180.9-3784.3-43.3c-118,19.7-224.2,31.5-228.1,23.6c-27.5-23.6,283.2-98.3,680.5-165.2c511.4-86.5,2619.8-98.3,3245.3-19.7c1070,133.8,1770.2,381.5,1931.4,680.5C8646.3-6550.2,8626.7-6487.3,8579.5-6566z"
         id="path24"
         style="fill:#a7a7a7;fill-opacity:1" /></g></g></svg>