<?xml version="1.0" encoding="UTF-8" standalone="no"?>
<!-- Svg Vector Icons : http://www.onlinewebfonts.com/icon -->

<svg
   xmlns:dc="http://purl.org/dc/elements/1.1/"
   xmlns:cc="http://creativecommons.org/ns#"
   xmlns:rdf="http://www.w3.org/1999/02/22-rdf-syntax-ns#"
   xmlns:svg="http://www.w3.org/2000/svg"
   xmlns="http://www.w3.org/2000/svg"
   xmlns:sodipodi="http://sodipodi.sourceforge.net/DTD/sodipodi-0.dtd"
   xmlns:inkscape="http://www.inkscape.org/namespaces/inkscape"
   version="1.1"
   x="0px"
   y="0px"
   viewBox="0 0 1000 1000"
   enable-background="new 0 0 1000 1000"
   xml:space="preserve"
   id="svg2"
   inkscape:version="0.91 r13725"
   sodipodi:docname="ea6887f7200e0b33420b13b13015226f.svg"><defs
     id="defs16" /><sodipodi:namedview
     pagecolor="#ffffff"
     bordercolor="#666666"
     borderopacity="1"
     objecttolerance="10"
     gridtolerance="10"
     guidetolerance="10"
     inkscape:pageopacity="0"
     inkscape:pageshadow="2"
     inkscape:window-width="760"
     inkscape:window-height="480"
     id="namedview14"
     showgrid="false"
     inkscape:zoom="0.236"
     inkscape:cx="500"
     inkscape:cy="500"
     inkscape:window-x="0"
     inkscape:window-y="0"
     inkscape:window-maximized="0"
     inkscape:current-layer="svg2" /><metadata
     id="metadata4"> Svg Vector Icons : http://www.onlinewebfonts.com/icon <rdf:RDF><cc:Work
     rdf:about=""><dc:format>image/svg+xml</dc:format><dc:type
       rdf:resource="http://purl.org/dc/dcmitype/StillImage" /></cc:Work></rdf:RDF></metadata><g
     id="g6"
     style="fill:#d80032;fill-opacity:1"><g
       transform="translate(0.000000,511.000000) scale(0.100000,-0.100000)"
       id="g8"
       style="fill:#d80032;fill-opacity:1"><path
         d="M2478.8,1876.3C1179.9,1282.5,107.7,790.6,100,782.9C86.6,769.5,4817.3-1398,4859.6-1396c11.5,0,1010.7,451.6,2221.2,1004.9C8291.3,160.4,9296.3,615.8,9315.5,621.5c30.7,9.6,32.6-21.1,32.6-443.9v-453.5l-71.1-28.8C9033-406.5,8960-727.4,9142.6-896.5l48-42.3L9010-1686.2c-99.9-411.2-180.6-751.3-180.6-755.2c0-3.8,242.1-5.8,539.9-5.8c424.7,0,538,5.8,530.4,25c-3.9,11.5-82.6,344-174.9,737.9l-167.2,714.8l65.3,67.3c84.6,84.5,117.2,178.7,105.7,311.3c-11.5,126.8-84.6,228.7-203.7,286.3l-80.7,36.5v476.5v476.5l101.9,46.1l99.9,44.2l-105.7,48c-57.6,26.9-1126,513-2373,1081.8c-1247,568.8-2280.8,1035.7-2296.2,1039.5C4855.7,2948.4,3779.7,2468.1,2478.8,1876.3z"
         id="path10"
         style="fill:#d80032;fill-opacity:1" /><path
         d="M2415.4-1175.1l5.8-553.4l63.4-98c288.2-447.7,1160.6-818.6,2092.5-887.7c958.8-73,2044.4,244,2532.5,739.8c184.5,188.3,184.5,186.4,178.7,810.8l-5.8,540l-1181.7-538c-649.4-295.9-1199-541.9-1222.1-547.6c-26.9-7.7-441.9,172.9-1245.1,538C2970.7-869.6,2425-621.7,2419.3-621.7C2413.5-621.7,2411.6-869.6,2415.4-1175.1z"
         id="path12"
         style="fill:#d80032;fill-opacity:1" /></g></g></svg>