<?xml version="1.0" encoding="UTF-8" standalone="no"?>
<!-- Svg Vector Icons : http://www.onlinewebfonts.com/icon -->

<svg
   xmlns:dc="http://purl.org/dc/elements/1.1/"
   xmlns:cc="http://creativecommons.org/ns#"
   xmlns:rdf="http://www.w3.org/1999/02/22-rdf-syntax-ns#"
   xmlns:svg="http://www.w3.org/2000/svg"
   xmlns="http://www.w3.org/2000/svg"
   xmlns:sodipodi="http://sodipodi.sourceforge.net/DTD/sodipodi-0.dtd"
   xmlns:inkscape="http://www.inkscape.org/namespaces/inkscape"
   version="1.1"
   x="0px"
   y="0px"
   viewBox="0 0 1000 1000"
   enable-background="new 0 0 1000 1000"
   xml:space="preserve"
   id="svg2"
   inkscape:version="0.91 r13725"
   sodipodi:docname="1d5ead8d29b683da3e2fd8e029bf7a8a.svg"><defs
     id="defs14" /><sodipodi:namedview
     pagecolor="#ffffff"
     bordercolor="#666666"
     borderopacity="1"
     objecttolerance="10"
     gridtolerance="10"
     guidetolerance="10"
     inkscape:pageopacity="0"
     inkscape:pageshadow="2"
     inkscape:window-width="760"
     inkscape:window-height="480"
     id="namedview12"
     showgrid="false"
     inkscape:zoom="0.236"
     inkscape:cx="500"
     inkscape:cy="500"
     inkscape:window-x="0"
     inkscape:window-y="0"
     inkscape:window-maximized="0"
     inkscape:current-layer="svg2" /><metadata
     id="metadata4"> Svg Vector Icons : http://www.onlinewebfonts.com/icon <rdf:RDF><cc:Work
     rdf:about=""><dc:format>image/svg+xml</dc:format><dc:type
       rdf:resource="http://purl.org/dc/dcmitype/StillImage" /></cc:Work></rdf:RDF></metadata><g
     id="g6"
     style="fill:#d80032;fill-opacity:1"><path
       d="M248.1,952.2c-16.6,0-31.1-14.6-31.1-31.2c0-168.3,105.9-370.8,263.6-423.4l4.7-1.6l-4-3c-53.6-39.7-84.4-100.6-84.4-167c0-114.2,92.7-207,206.6-207c113.9,0,206.6,92.9,206.6,207c0,66.4-30.8,127.2-84.4,167l-4,3l4.7,1.6c155.5,52.7,261.5,253.4,263.7,419v4.5c0,16.6-14.5,31.2-31.1,31.2H248.1z M601.2,542.1c-167.6,0-306,180-322,347.1l-0.3,2.9h646.8l-0.3-2.9C907.2,722.1,767.8,542.1,601.2,542.1z M603.5,181.5c-79.6,0-144.3,64.9-144.3,144.6c0,79.7,64.7,144.6,144.3,144.6c79.6,0,144.3-64.9,144.3-144.6C747.8,246.3,683,181.5,603.5,181.5z"
       id="path8"
       style="fill:#d80032;fill-opacity:1" /><path
       d="M41.2,882.5c-16.6,0-31.2-14.6-31.2-31.2C10,689.1,68.4,513,251.1,423.6l11.5-4.2l-7-6.1C210.1,375.9,190,308,190,254.4c0-113.9,92.7-206.6,206.6-206.6c21.7,0,48.2,1.9,76.7,12.2c14.4,8.3,24.8,27,16.6,41.3c-6.7,11.7-18.4,19-30.5,19c-3.8,0-7.6-0.7-11.4-2.1c-16.7-4.8-35.7-5.8-53.8-5.8C314.7,112.3,250,177,250,256.6c0,53.1,25.7,117.6,88,145.1c15.5,6.8,20.4,27.4,12.4,41.4c-3.6,8.9-10.3,13.5-20.9,16.8C145.8,516.4,85.9,674.7,72.3,817.3l-0.3,2.8h45.6c16.6,0,31.1,14.5,31.1,31.1c0,16.6-14.5,31.2-31.1,31.2H41.2z"
       id="path10"
       style="fill:#d80032;fill-opacity:1" /></g></svg>