<?xml version="1.0" encoding="UTF-8" standalone="no"?>
<!-- Generator: Adobe Illustrator 16.0.0, SVG Export Plug-In . SVG Version: 6.00 Build 0)  -->

<svg
   xmlns:dc="http://purl.org/dc/elements/1.1/"
   xmlns:cc="http://creativecommons.org/ns#"
   xmlns:rdf="http://www.w3.org/1999/02/22-rdf-syntax-ns#"
   xmlns:svg="http://www.w3.org/2000/svg"
   xmlns="http://www.w3.org/2000/svg"
   xmlns:sodipodi="http://sodipodi.sourceforge.net/DTD/sodipodi-0.dtd"
   xmlns:inkscape="http://www.inkscape.org/namespaces/inkscape"
   version="1.1"
   id="Capa_1"
   x="0px"
   y="0px"
   width="97.361px"
   height="97.361px"
   viewBox="0 0 97.361 97.361"
   style="enable-background:new 0 0 97.361 97.361;"
   xml:space="preserve"
   inkscape:version="0.91 r13725"
   sodipodi:docname="migration-top-blue.svg"><metadata
     id="metadata49"><rdf:RDF><cc:Work
         rdf:about=""><dc:format>image/svg+xml</dc:format><dc:type
           rdf:resource="http://purl.org/dc/dcmitype/StillImage" /><dc:title></dc:title></cc:Work></rdf:RDF></metadata><defs
     id="defs47" /><sodipodi:namedview
     pagecolor="#ffffff"
     bordercolor="#666666"
     borderopacity="1"
     objecttolerance="10"
     gridtolerance="10"
     guidetolerance="10"
     inkscape:pageopacity="0"
     inkscape:pageshadow="2"
     inkscape:window-width="1920"
     inkscape:window-height="1148"
     id="namedview45"
     showgrid="false"
     inkscape:zoom="2.4239685"
     inkscape:cx="48.6805"
     inkscape:cy="48.6805"
     inkscape:window-x="-8"
     inkscape:window-y="-8"
     inkscape:window-maximized="1"
     inkscape:current-layer="Capa_1" /><g
     id="g3"
     style="fill:#005584;fill-opacity:1"><g
       id="g5"
       style="fill:#005584;fill-opacity:1"><path
         d="M30.036,38.291H17.283c-2.067,0-3.746,1.677-3.746,3.747v51.576c0,2.069,1.679,3.747,3.746,3.747h12.753    c2.069,0,3.75-1.678,3.75-3.747V42.038C33.786,39.969,32.105,38.291,30.036,38.291z M23.663,89.452    c-2.997,0-5.426-2.429-5.426-5.425c0-2.994,2.429-5.424,5.426-5.424c2.994,0,5.423,2.43,5.423,5.424    C29.086,87.023,26.657,89.452,23.663,89.452z M29.086,69.414H18.237V48.15h10.849V69.414z"
         id="path7"
         style="fill:#005584;fill-opacity:1" /><path
         d="M73.968,39.771c-0.8-0.939-1.966-1.479-3.198-1.479c-1.234,0-2.404,0.541-3.201,1.479l-9.362,11.012    c-0.521,0.611-0.638,1.471-0.302,2.199s1.065,1.195,1.873,1.195h3.494v40.01c0,1.752,1.42,3.172,3.17,3.172h8.65    c1.755,0,3.176-1.418,3.176-3.172v-40.01h3.497c0.804,0,1.531-0.467,1.869-1.195s0.22-1.588-0.3-2.199L73.968,39.771z"
         id="path9"
         style="fill:#005584;fill-opacity:1" /><path
         d="M55.21,54.165c-0.815-1.769-0.533-3.877,0.735-5.364l2.857-3.361v-3.402c0-2.069-1.676-3.747-3.746-3.747H42.305    c-2.07,0-3.751,1.677-3.751,3.747v51.576c0,2.069,1.681,3.747,3.751,3.747h12.752c2.07,0,3.746-1.678,3.746-3.747V56.943    C57.25,56.633,55.889,55.637,55.21,54.165z M48.678,89.452c-2.996,0-5.423-2.429-5.423-5.425c0-2.994,2.427-5.424,5.423-5.424    c2.997,0,5.426,2.43,5.426,5.424C54.104,87.023,51.675,89.452,48.678,89.452z M54.104,69.414H43.255V48.15h10.849V69.414z"
         id="path11"
         style="fill:#005584;fill-opacity:1" /><path
         d="M76.604,14.234c-0.695-0.06-1.332-0.415-1.75-0.976c-3.789-5.102-9.854-8.246-16.309-8.246    c-0.396,0-0.793,0.012-1.188,0.035c-0.578,0.034-1.146-0.138-1.609-0.486C51.816,1.603,47.058,0,42.073,0    c-8.93,0-16.857,5.166-20.576,12.992c-0.352,0.74-1.051,1.253-1.861,1.369C9.797,15.762,2.207,24.243,2.207,34.463    c0,6.266,2.855,11.874,7.33,15.601v-8.027c0-1.502,0.437-2.901,1.18-4.09c-0.327-1.105-0.51-2.273-0.51-3.483    c0-6.785,5.521-12.305,12.306-12.305c0.342,0,0.68,0.027,1.015,0.055c1.955,0.151,3.726-1.117,4.202-3.014    c1.654-6.594,7.553-11.199,14.344-11.199c3.88,0,7.552,1.499,10.34,4.219c0.953,0.929,2.305,1.325,3.609,1.053    c0.83-0.173,1.68-0.261,2.522-0.261c4.751,0,8.993,2.671,11.071,6.97c0.73,1.512,2.328,2.411,3.998,2.239    c0.416-0.042,0.832-0.063,1.234-0.063c6.785,0,12.307,5.52,12.307,12.305c0,3.788-1.723,7.178-4.424,9.438l3.648,4.29    c0.532,0.627,0.911,1.348,1.148,2.106c4.643-3.725,7.625-9.434,7.625-15.833C95.156,23.859,86.982,15.127,76.604,14.234z"
         id="path13"
         style="fill:#005584;fill-opacity:1" /></g></g><g
     id="g15" /><g
     id="g17" /><g
     id="g19" /><g
     id="g21" /><g
     id="g23" /><g
     id="g25" /><g
     id="g27" /><g
     id="g29" /><g
     id="g31" /><g
     id="g33" /><g
     id="g35" /><g
     id="g37" /><g
     id="g39" /><g
     id="g41" /><g
     id="g43" /></svg>