<?xml version="1.0" encoding="UTF-8" standalone="no"?>
<!-- Svg Vector Icons : http://www.onlinewebfonts.com/icon -->

<svg
   xmlns:dc="http://purl.org/dc/elements/1.1/"
   xmlns:cc="http://creativecommons.org/ns#"
   xmlns:rdf="http://www.w3.org/1999/02/22-rdf-syntax-ns#"
   xmlns:svg="http://www.w3.org/2000/svg"
   xmlns="http://www.w3.org/2000/svg"
   xmlns:sodipodi="http://sodipodi.sourceforge.net/DTD/sodipodi-0.dtd"
   xmlns:inkscape="http://www.inkscape.org/namespaces/inkscape"
   version="1.1"
   x="0px"
   y="0px"
   viewBox="0 0 1000 1000"
   enable-background="new 0 0 1000 1000"
   xml:space="preserve"
   id="svg2"
   inkscape:version="0.91 r13725"
   sodipodi:docname="req-top-icon.svg"><defs
     id="defs12" /><sodipodi:namedview
     pagecolor="#ffffff"
     bordercolor="#666666"
     borderopacity="1"
     objecttolerance="10"
     gridtolerance="10"
     guidetolerance="10"
     inkscape:pageopacity="0"
     inkscape:pageshadow="2"
     inkscape:window-width="1920"
     inkscape:window-height="1148"
     id="namedview10"
     showgrid="false"
     inkscape:zoom="0.472"
     inkscape:cx="-689.97126"
     inkscape:cy="483.38544"
     inkscape:window-x="-8"
     inkscape:window-y="-8"
     inkscape:window-maximized="1"
     inkscape:current-layer="g6" /><metadata
     id="metadata4"> Svg Vector Icons : http://www.onlinewebfonts.com/icon <rdf:RDF><cc:Work
     rdf:about=""><dc:format>image/svg+xml</dc:format><dc:type
       rdf:resource="http://purl.org/dc/dcmitype/StillImage" /></cc:Work></rdf:RDF></metadata><g
     id="g6"
     style="fill:#005584;fill-opacity:1"><path
       d="m 410.7,846.1 136.6,-34.6 -102,-102 z m 568.4,-517.3 -51,-51 c -14.6,-14.6 -36.4,-14.6 -51,0 l -65.6,65.6 0,-262.4 c 0,-31 -23.7,-54.6 -54.6,-54.6 l -692.3,0 C 33.7,26.4 10,50.1 10,81 l 0,838 c 0,31 23.7,54.6 54.6,54.6 l 692.2,0 c 31,0 54.6,-23.7 54.6,-54.6 l 0,-371.6 65.6,-65.6 -65.6,-65.6 0,-51 91.1,91.1 76.5,-76.5 c 14.6,-14.6 14.6,-38.3 0.1,-51 z m -167.6,14.5 -10.9,10.9 10.9,10.9 0,51 -36.4,-36.4 -306,306 102,102 240.6,-240.6 0,45.7 -48.4,46.4 0,263.2 c 0,20 -6.4,36.4 -26.4,36.4 l -655.9,0 c -20,0 -26.4,-16.4 -26.4,-36.4 l 0,-801.3 C 54.6,81 61,64.6 81,64.6 l 655.8,0 c 20,0 26.23109,16.400713 26.4,36.4 l 0,246.8 48.4,-46.4 0,41.9 z m -694.8,-56.1 585.4,0 0,-60.4 -585.4,0 z m 0,255 439.7,0 0,-60.4 -439.7,0 z"
       id="path8"
       style="fill:#1dc3de;fill-opacity:1"
       inkscape:connector-curvature="0"
       sodipodi:nodetypes="ccccscsscsssssssscccccscccccccccccccssssssssccccccccccc" /></g></svg>