<?xml version="1.0" encoding="UTF-8" standalone="no"?>
<!-- Svg Vector Icons : http://www.onlinewebfonts.com/icon -->

<svg
   xmlns:dc="http://purl.org/dc/elements/1.1/"
   xmlns:cc="http://creativecommons.org/ns#"
   xmlns:rdf="http://www.w3.org/1999/02/22-rdf-syntax-ns#"
   xmlns:svg="http://www.w3.org/2000/svg"
   xmlns="http://www.w3.org/2000/svg"
   xmlns:sodipodi="http://sodipodi.sourceforge.net/DTD/sodipodi-0.dtd"
   xmlns:inkscape="http://www.inkscape.org/namespaces/inkscape"
   version="1.1"
   x="0px"
   y="0px"
   viewBox="0 0 1000 1000"
   enable-background="new 0 0 1000 1000"
   xml:space="preserve"
   id="svg2"
   inkscape:version="0.91 r13725"
   sodipodi:docname="spark-tech.svg"><defs
     id="defs12" /><sodipodi:namedview
     pagecolor="#ffffff"
     bordercolor="#666666"
     borderopacity="1"
     objecttolerance="10"
     gridtolerance="10"
     guidetolerance="10"
     inkscape:pageopacity="0"
     inkscape:pageshadow="2"
     inkscape:window-width="760"
     inkscape:window-height="480"
     id="namedview10"
     showgrid="false"
     inkscape:zoom="0.236"
     inkscape:cx="-345.33898"
     inkscape:cy="500"
     inkscape:window-x="0"
     inkscape:window-y="0"
     inkscape:window-maximized="0"
     inkscape:current-layer="svg2" /><metadata
     id="metadata4"> Svg Vector Icons : http://www.onlinewebfonts.com/icon <rdf:RDF><cc:Work
     rdf:about=""><dc:format>image/svg+xml</dc:format><dc:type
       rdf:resource="http://purl.org/dc/dcmitype/StillImage" /></cc:Work></rdf:RDF></metadata><g
     id="g6"
     style="fill:#a7a7a7;fill-opacity:1"><path
       d="M981.2,356.3c-16.3,21.9-34.8,42.4-52.7,62.3l-2,2.3c-6.8,7.6-7.3,10.6-2.6,18.1c13.8,22,24.1,41.8,31.4,60.4c4.7,11.9,5.6,30.7-2,42c-6.3,9.4-21.8,14.3-33.9,14.3c-2,0-3.9-0.1-5.7-0.4c-20.4-3.1-43.9-7.7-63.3-18.8c-4.7-2.7-7.9-6.8-10.4-11.6c-2.6,10.9-9,21.7-22.3,31.5c-6.3,4.6-11.9,11-17.8,17.8c-1.3,1.5-2.6,3-4,4.6l83.8,117.1l-12.5,4.3c-11.3,3.9-21.1,5.8-29.9,5.8c-19.7,0-35.2-9.5-48.7-29.9c-10.5-15.9-21.1-31.7-32.7-49.2l-1.7-2.6c0,0,0,0.1,0,0.1c-2.7,16.9-5,31.6-5.6,46.2c-1.1,28-17,33.9-30.2,33.9c-2.9,0-5.9-0.3-9.3-0.8c-3.1-0.5-6.4-0.6-10.6-0.8c-2.3-0.1-4.8-0.2-7.5-0.3l-10.5-0.6l1.3-10.4c1-8.5,2-16.9,3-25.2c2.2-18.8,4.3-36.6,6.7-54.7c1.5-11.1,3.2-22.3,4.9-33.1c3.3-21.5,6.8-43.8,8.1-65.6c0.7-11.5,3.5-21,8.5-29.1c-1.3,0.1-2.6,0.3-4,0.3c-9.1,0-18.9-2.6-33-8.7c-2.6-1.1-5.3-2.2-8.1-3.3c-9.3-3.7-18.8-7.4-26.6-14.3c-9.1-8-18.6-22.5-18.1-35.5c0.5-12.4,13.5-26.3,24.9-31c24.9-10.2,50.3-17.9,78.6-26.2c8-2.3,10.3-4.9,11.3-12.5c2.9-22.3,7.4-44.4,11.5-63.9c1.8-8.8,4.8-17.1,8.8-24c8.1-14.2,19.3-22.1,31.6-22.1c7.8,0,19.4,3.2,30.3,18.5c13.2,18.6,24.8,38.6,36.1,57.9l0.5,0.9c3.3,5.6,5.1,5.6,6.6,5.6c1.4,0,3.2-0.3,5.4-1c16.6-5,33.5-9.3,49.9-13.4c6.2-1.6,12.4-3.1,18.7-4.7c1-0.2,2-0.6,3-0.9c3.2-1,6.9-2.2,11-2.2c0.9,0,1.9,0.1,2.8,0.2c1.6,0.2,3.4,0.4,5.3,0.7c15.6,1.9,27.9,3.4,30,13.5C991.7,330.7,988.5,346.5,981.2,356.3z M833.6,480c0.4,0.8,0.7,1.7,1,2.5l6.6-5l45.3,11.7c-0.1-0.2-0.2-0.4-0.3-0.6c-8.7-16.4-16.2-30.5-22.9-45.5c-4-9.1-2.5-23.2,3.3-30.7c11.3-14.8,23.7-29,35.6-42.8c-12.9,3.1-26.1,6.4-38.6,10.7c-6.9,2.4-12.6,3.5-17.8,3.5c-13.5,0-23.5-7.4-30.6-22.6c-4.8-10.1-11-20-19.3-30.2c-2.7,12.3-5.2,24.1-6.3,36c-1.6,18.2-7.5,39.8-39.6,45.9c-11.4,2.1-23.2,6.1-36.8,12.3l49.9,21.3l15.3-9.8l-11.6,95.1l60.8-65.9L833.6,480z M772.6,616.2c11.6,17.5,22.2,33.3,32.7,49.2c9.9,14.9,19.2,21,32.1,21c3.2,0,6.7-0.4,10.4-1.1l-77.4-108.1l5.6-5.9c3.1-3.3,6.1-6.7,9-9.9c6.7-7.6,13-14.8,21-20.7c13.7-10.1,18.3-21.4,14.5-37.8l-71.7,77.7L772.6,616.2z M711.2,614.4c-2.4,17.9-4.5,35.7-6.7,54.4c-0.6,4.9-1.2,9.7-1.7,14.7c3.3,0.1,6.3,0.4,9.5,0.9c2.3,0.4,4.4,0.5,6.3,0.5c5.2,0,9.8,0,10.4-15c0.6-15.7,3-30.9,5.8-48.4c1.3-8,2.6-16.3,3.8-25.2l3.6-26l0.1,0.1l11.5-94.1c-2.2,1.4-4.3,2.6-6.6,3.7c-15.4,7.8-21.8,17.4-22.8,34.4c-1.3,22.7-4.9,45.4-8.3,67.4C714.3,592.5,712.6,603.5,711.2,614.4z M956.7,323.8c-2-0.2-3.9-0.5-5.6-0.7l0,0c-1.1,0-3.2,0.7-5.1,1.2c-1.3,0.4-2.7,0.8-4,1.2c-6.3,1.6-12.5,3.2-18.8,4.8c-16.2,4-32.9,8.2-49,13.1c-4.1,1.2-7.8,1.8-11.2,1.8c-14.7,0-21.5-11.6-23.7-15.4l-0.5-0.9c-11-18.9-22.4-38.5-35.1-56.4c-4.6-6.6-9.6-10.2-14-10.2c-4.7,0-9.9,4.4-14.3,12c-2.9,5.2-5.2,11.5-6.6,18.3c-3.9,19.2-8.4,40.9-11.2,62.5c-2,15.4-9.8,24.3-25.3,28.9c-27.7,8.1-52.6,15.7-76.6,25.6c-6,2.5-12.6,10.6-12.7,13.6c-0.2,5.2,5,14.4,11.4,20c5.2,4.6,12.8,7.6,20.8,10.7c2.9,1.1,5.9,2.3,8.8,3.6c11.2,4.9,18.9,7.1,24.9,7.1c6.9,0,13.2-3,21.7-10.8l-63.3-27l17.9-9.7c24-13,42.9-20.4,61.3-23.8c16.2-3,21.9-9.9,23.5-28.2c1.2-13.8,4.2-27.4,7.1-40.6c1.2-5.6,2.5-11.4,3.6-17l3.7-18.9l13.3,14.1c16.4,17.4,27.8,33.3,35.6,50c4.9,10.4,8.9,11.2,12.7,11.2c2.9,0,6.7-0.8,11.4-2.4c14.3-4.9,29.1-8.5,43.4-11.9c6.1-1.5,12.4-3,18.5-4.6l7.5-1.9l9.6,17.3l-4.4,5.2c-4.5,5.3-9,10.5-13.6,15.7c-12,13.9-24.5,28.2-35.8,42.9c-1.4,1.8-2.1,8.2-0.9,10.9c6.4,14.4,13.7,28.2,22.3,44.3c3.4,6.4,7,13.2,10.7,20.3l10.2,19.6l-72.5-18.7c0.1,0.3,0.2,0.7,0.3,1c2,6.7,4.8,15.9,7.8,17.7c16.5,9.5,37.7,13.6,56.3,16.4c0.8,0.1,1.7,0.2,2.7,0.2c8.3,0,16.1-3.6,17.4-5.5c3.1-4.5,3.1-16.2,0-23.9c-6.8-17.5-16.6-36.2-29.8-57.2c-12-19.1-3.8-32.3,4.6-41.6l2-2.3c17.6-19.5,35.8-39.6,51.5-60.8c3.3-4.4,5.2-12.2,4.9-18.9C966.4,325,960.4,324.3,956.7,323.8z M671,507.6c2.5,0,5.1,0,7.6,0l23.3,0v9.8c0,2.4,0,4.7,0.1,6.8c0.1,4.8,0.2,9.4-0.2,14.1c-0.4,4.9-1.4,9.5-2.3,13.9c-0.4,1.8-0.7,3.5-1,5.2l-1.2,6.6l-6.6,1.3c-15.8,3.1-25.2,5-28.6,8.6c-3.5,3.8-5.2,14.5-7.8,30.7c-0.7,4.5-1.5,9-2.2,13.5c-2.9,17.4-5.8,35.4-6.5,52.9c-0.8,22.2-10.4,33.5-28.6,33.5c-2.9,0-6-0.3-9.5-0.9c-2.7-0.5-5.6-0.6-9.4-0.9c-2.1-0.1-4.4-0.3-6.9-0.5l-10.3-0.8l1.2-10.1c0.8-6.2,1.5-12.3,2.2-18.4c-0.6,3.9-1.1,7.7-1.7,11.6c-1.4,8.7-11.5,16.9-19.7,18.6c-3.7,0.7-7.8,1.1-12.8,1.1c-2.8,0-5.5-0.1-8.4-0.2c-3-0.1-6.1-0.2-9.3-0.2h-11.2l1-8.2c-4.2,3.9-9.2,6.8-13.6,8.1c-10.8,3.3-21.7,4.9-32.3,4.9c-28.1,0-53.8-11.9-70.6-32.7c-12.5-15.5-18.8-34.6-19.4-55.1c-1.4,5.3-2.8,10.6-5.1,15.8c-19.7,44.5-57.6,70-104.1,70c-15.4,0-31.2-2.8-47.1-8.5l-8.5,59.1h-59.5l1.6-11.2c2-14.4,3.9-29,5.7-43.2c1.9-14.3,3.8-28.9,5.9-43.5c-14.3,27.2-38.4,44-70.6,49c-7.2,1.1-14,1.6-20.2,1.6c-37.4,0-61.2-19.3-72.5-59.1l-2.2-7.6l55.8-29.8l7.9,12.7c2,3.2,3.9,6.3,5.9,9.3c5.1,7.9,11.8,12.3,18.6,12.3c5.4,0,11-2.6,16.4-7.4c8.8-8,7.1-13.7,2-19.7c-13.1-15.4-27-31-41.4-46.3c-24.2-25.7-30.5-52.4-18.8-79.5c14-32.5,40.7-51.5,77.3-55.1c31.7-3.1,56.5,10.7,76.3,42.6l4.7,7.6l-51.9,39.6l-6.1-6.5c-2.1-2.2-4-4.4-5.9-6.6c-3.6-4.2-6.7-7.7-10.1-10.2c-7.8-5.6-15.1-5.2-21.8,1.5c-3,3-4.6,4.6,4.4,14.4c2.8,3,5.6,6.1,8.4,9.2c8.5,9.3,17.2,19,26.3,27.8c14.4,14,23.2,28.7,26.9,44c0.5-2.8,0.9-5.7,1.5-8.5c4.9-24.8,21.7-46,31.3-56.4c20.9-22.8,47.9-34.9,78.3-34.9c6.9,0,14,0.6,21,1.9c27.6,4.9,50,20.8,62.9,44.8c6.5,12,9.8,25.2,10.5,38.8c13.3-48.2,62.1-85.3,113.3-85.3c4.7,0,9.5,0.3,14.1,0.9c47,6.3,79.7,47.2,76.1,95.2c-0.1,0.9-0.2,1.8-0.3,2.7c1.2-8.6,2.5-17.2,3.8-25.6l0.9-5.9C604.6,529,629.1,507.9,671,507.6z M143.9,573c-9.5-9.2-18.5-19.1-27.1-28.7c-2.8-3-5.5-6.1-8.3-9.1c-5.4-5.9-21.8-23.7-3.8-41.6c7.3-7.3,16.1-11.1,25.3-11.1c7.5,0,15.2,2.6,22.2,7.6c5.1,3.6,9.1,8.1,12.9,12.6l23-17.5c-14.6-20.2-30.9-28.1-52.5-25.9c-29.4,2.9-49.9,17.5-61,43.3c-8.6,19.8-3.8,38.4,15.1,58.3c14.6,15.5,28.8,31.4,42.1,47c13.1,15.4,11.7,32.9-3.7,46.9c-9.1,8.2-19.4,12.6-29.8,12.6c-13.9,0-26.4-7.6-35.3-21.4c-1.4-2.1-2.8-4.3-4.2-6.5L33.6,653c9.3,26.1,24.9,37.3,51,37.3c5.3,0,11-0.5,17.2-1.4c30.5-4.7,51.2-21.8,61.5-51C171.6,614.6,165.5,594,143.9,573z M362.2,559c-10-18.6-27.4-30.9-48.9-34.7c-5.9-1.1-11.8-1.6-17.6-1.6c-24.6,0-46.6,9.8-63.6,28.4c-13.9,15.2-23.6,32.4-26.5,47c-7,35.2-11.8,71.8-16.3,107.1c-1.4,10.6-2.8,21.4-4.2,32.2h19.5l9.8-67.5l12,5.3c17.4,7.7,34.6,11.6,51.1,11.6c38.3,0,69.6-21.2,85.9-58.3C373.7,605,373.3,579.6,362.2,559z M522.2,633.8l8.9-4.3c0.8-7.2,1.5-14.4,2.1-21.6c1.5-20.3-4.4-33.6-18.2-40.5c-6-3-12.1-4.5-18.2-4.5c-9.5,0-19.2,3.6-28.8,10.7c-16.4,12-23.4,27.1-20.8,44.8c2.5,17.9,17.2,30.4,35.7,30.4c3.9,0,7.8-0.6,11.6-1.7c5.5-1.6,10.9-4.5,17.2-7.8C514.9,637.4,518.4,635.6,522.2,633.8z M515,523.6c-3.7-0.5-7.6-0.8-11.4-0.8c-43.9,0-85.7,32.7-95.2,74.4c-5.7,25.2-1.1,48.8,13.1,66.4c13.2,16.3,32.7,25.3,55.1,25.3c8.6,0,17.5-1.4,26.5-4.1c3.6-1.1,8-5.2,8.5-7.1c1.7-5.6,2.5-11.7,3.2-18c-4.8,2.4-9.6,4.6-14.8,6.1c-5.7,1.7-11.5,2.5-17.2,2.5c-28.2,0-51.4-19.9-55.3-47.3c-3.6-25,6.4-46.9,28.7-63.3c13.1-9.7,26.8-14.6,40.6-14.6c9.2,0,18.4,2.2,27.2,6.7c14.7,7.4,31.8,23.7,29.1,59.6c-1.5,19.4-4.1,38.5-6.9,58.7c-0.7,5.3-1.5,10.7-2.2,16.2c2.2,0.1,4.4,0.1,6.5,0.1c3.7,0,6.5-0.2,8.9-0.7c1.1-0.3,3.2-1.9,4.1-3.1c4.4-27.9,8.5-55.2,10.6-82.9C576.8,560.5,551.4,528.5,515,523.6z M616.9,579.4c-1.7,10.9-3.5,22.1-4.9,33.1c-2.4,18.8-4.6,37.2-7,56.7c-0.6,4.7-1.1,9.5-1.7,14.3c2.7,0.2,5.2,0.4,7.8,0.9c2.3,0.4,4.3,0.6,6.1,0.6c4.6,0,8.2,0,8.7-14.5c0.7-18.7,3.7-37.3,6.7-55.3c0.7-4.4,1.5-8.9,2.2-13.4c6.5-41.3,9.9-46.8,45.5-54.3c0.8-3.8,1.4-7.3,1.8-10.9c0.3-2.9,0.3-5.9,0.2-9.3l-3.6,0c-2.5,0-5,0-7.5,0c-32.3,0.2-48.3,14-53.3,46.1L616.9,579.4z M279.9,668.3h-0.1c-16,0-30.5-5.7-40.8-16.1c-10.3-10.3-15.8-24.5-15.6-40.1c0.4-37,32.4-68.3,69.8-68.3h0.3c31.3,0.2,56,24.3,56.2,54.9c0.1,17.2-7.6,34.7-21,48.2C315,660.5,297.3,668.3,279.9,668.3z M293.3,563.5H293c-26.3,0-49.6,22.8-49.9,48.8c-0.1,10.4,3.3,19.4,9.9,26c6.6,6.6,16.1,10.3,26.7,10.3c12.2,0,24.8-5.7,34.7-15.5c9.8-9.8,15.4-22.3,15.3-34.2C329.6,578.8,313.9,563.6,293.3,563.5z"
       id="path8"
       style="fill:#a7a7a7;fill-opacity:1" /></g></svg>