<?xml version="1.0" encoding="UTF-8" standalone="no"?>
<!-- Svg Vector Icons : http://www.onlinewebfonts.com/icon -->

<svg
   xmlns:dc="http://purl.org/dc/elements/1.1/"
   xmlns:cc="http://creativecommons.org/ns#"
   xmlns:rdf="http://www.w3.org/1999/02/22-rdf-syntax-ns#"
   xmlns:svg="http://www.w3.org/2000/svg"
   xmlns="http://www.w3.org/2000/svg"
   xmlns:sodipodi="http://sodipodi.sourceforge.net/DTD/sodipodi-0.dtd"
   xmlns:inkscape="http://www.inkscape.org/namespaces/inkscape"
   version="1.1"
   x="0px"
   y="0px"
   viewBox="0 0 1000 1000"
   enable-background="new 0 0 1000 1000"
   xml:space="preserve"
   id="svg2"
   inkscape:version="0.91 r13725"
   sodipodi:docname="storm-tech.svg"><defs
     id="defs16" /><sodipodi:namedview
     pagecolor="#ffffff"
     bordercolor="#666666"
     borderopacity="1"
     objecttolerance="10"
     gridtolerance="10"
     guidetolerance="10"
     inkscape:pageopacity="0"
     inkscape:pageshadow="2"
     inkscape:window-width="760"
     inkscape:window-height="480"
     id="namedview14"
     showgrid="false"
     inkscape:zoom="0.236"
     inkscape:cx="-345.33898"
     inkscape:cy="500"
     inkscape:window-x="409"
     inkscape:window-y="130"
     inkscape:window-maximized="0"
     inkscape:current-layer="svg2" /><metadata
     id="metadata4"> Svg Vector Icons : http://www.onlinewebfonts.com/icon <rdf:RDF><cc:Work
     rdf:about=""><dc:format>image/svg+xml</dc:format><dc:type
       rdf:resource="http://purl.org/dc/dcmitype/StillImage" /></cc:Work></rdf:RDF></metadata><g
     id="g6"
     style="fill:#a7a7a7;fill-opacity:1"><g
       transform="translate(0.000000,511.000000) scale(0.100000,-0.100000)"
       id="g8"
       style="fill:#a7a7a7;fill-opacity:1"><path
         d="M5404.3,5003.2C4040.1,4857.4,2910,3844.3,2631.8,2518.5c-19.2-95.9-38.4-178.4-44.1-182.3c-3.8-3.8-72.9,5.8-155.4,21.1c-191.9,36.4-521.9,36.4-715.7,0C912.7,2203.8,296.8,1605.2,133.7,812.8C78,549.9,93.4,125.9,164.4-113.9c214.9-725.3,775.1-1247.1,1498.5-1396.8c157.3-34.5,274.4-36.4,1381.5-38.4c665.8,0,1281.7,0,1369.9,0l161.2,1.9l-621.7,385.6c-341.5,213-625.5,389.5-627.4,391.4c-3.8,3.8,278.2,520,627.4,1149.3c349.2,627.4,644.7,1166.6,656.2,1199.2l21.1,59.5h1540.7h1540.7l-441.3-846.2c-241.7-464.3-437.5-848-433.6-850c30.7-23,508.5-383.7,520-395.2c9.6-7.7-113.2-255.2-272.5-548.8c-157.3-293.6-284-537.2-280.1-541.1c3.8-3.8,493.1-7.7,1089.8-7.7H8975l126.6,57.6c520,236,827,713.8,796.3,1241.4c-24.9,412.5-230.2,773.2-566,995.8c-140.1,90.2-333.9,174.6-454.7,193.8c-140.1,23-143.9,26.8-124.7,76.7c9.6,26.8,36.5,143.9,61.4,262.9c55.6,282,61.4,846.1,9.6,1122.4c-90.2,479.7-270.5,907.5-548.8,1300.9c-142,203.4-525.7,585.2-736.8,732.9c-351.1,247.5-803.9,439.4-1231.8,523.8C6100.8,4997.4,5594.3,5022.4,5404.3,5003.2z"
         id="path10"
         style="fill:#a7a7a7;fill-opacity:1" /><path
         d="M4763.5,1215.7c-19.2-65.2-389.5-800.1-807.8-1605.9l-113.2-214.9l592.9-399.1c328.1-218.7,594.8-404.8,594.8-410.6c0-5.8-138.2-268.6-307-583.3c-168.8-314.7-301.2-579.4-293.6-587.1c7.7-7.7,211.1-147.7,449-312.7l435.5-299.3l-17.3-80.6c-48-226.4-297.4-1511.9-293.6-1511.9c11.5,0,1561.8,2089.5,1559.9,2104.8c0,7.7-115.1,101.7-257.1,207.2l-255.2,191.9l82.5,153.5c337.7,625.5,777.1,1452.5,777.1,1458.2S6774.3-562.9,6609.3-442c-166.9,122.8-310.8,230.2-318.5,237.9c-9.6,7.7,140.1,341.5,330,742.5c191.9,401,347.3,734.9,347.3,742.5c0,5.8-491.2,11.5-1089.8,11.5H4786.5L4763.5,1215.7z"
         id="path12"
         style="fill:#a7a7a7;fill-opacity:1" /></g></g></svg>