<?xml version="1.0" encoding="UTF-8" standalone="no"?>
<!-- Svg Vector Icons : http://www.onlinewebfonts.com/icon -->

<svg
   xmlns:dc="http://purl.org/dc/elements/1.1/"
   xmlns:cc="http://creativecommons.org/ns#"
   xmlns:rdf="http://www.w3.org/1999/02/22-rdf-syntax-ns#"
   xmlns:svg="http://www.w3.org/2000/svg"
   xmlns="http://www.w3.org/2000/svg"
   xmlns:sodipodi="http://sodipodi.sourceforge.net/DTD/sodipodi-0.dtd"
   xmlns:inkscape="http://www.inkscape.org/namespaces/inkscape"
   version="1.1"
   x="0px"
   y="0px"
   viewBox="0 0 1000 1000"
   enable-background="new 0 0 1000 1000"
   xml:space="preserve"
   id="svg2"
   inkscape:version="0.91 r13725"
   sodipodi:docname="development.svg"><defs
     id="defs32" /><sodipodi:namedview
     pagecolor="#ffffff"
     bordercolor="#666666"
     borderopacity="1"
     objecttolerance="10"
     gridtolerance="10"
     guidetolerance="10"
     inkscape:pageopacity="0"
     inkscape:pageshadow="2"
     inkscape:window-width="760"
     inkscape:window-height="480"
     id="namedview30"
     showgrid="false"
     inkscape:zoom="0.236"
     inkscape:cx="500"
     inkscape:cy="500"
     inkscape:window-x="0"
     inkscape:window-y="0"
     inkscape:window-maximized="0"
     inkscape:current-layer="svg2" /><metadata
     id="metadata4"> Svg Vector Icons : http://www.onlinewebfonts.com/icon <rdf:RDF><cc:Work
     rdf:about=""><dc:format>image/svg+xml</dc:format><dc:type
       rdf:resource="http://purl.org/dc/dcmitype/StillImage" /></cc:Work></rdf:RDF></metadata><g
     id="g6"
     style="fill:#84cae7;fill-opacity:1;opacity:1"><g
       transform="translate(0.000000,511.000000) scale(0.100000,-0.100000)"
       id="g8"
       style="fill:#84cae7;fill-opacity:1"><path
         d="M4656.1,4965.8c-109.7-53.7-184.5-144.8-205.5-247.5c-16.3-93.4,1926.3-6203.8,1996.3-6273.8c77.1-77.1,371.3-81.7,588.4-14c298.9,98.1,534.7,289.5,534.7,439c0,30.4-287.2,756.5-639.7,1611.1c-352.6,856.9-898.9,2187.8-1216.5,2956c-315.2,770.5-586,1419.6-597.7,1443C5046,5010.2,4828.9,5049.9,4656.1,4965.8z"
         id="path10"
         style="fill:#84cae7;fill-opacity:1" /><path
         d="M3682.4,3289.4c-25.7-11.7-65.4-42-88.7-67.7c-58.4-65.4-179.8-368.9-179.8-450.6c0-205.5,525.3-488,922.3-497.3c228.8-4.7,270.8,28,347.9,259.2c81.7,242.8,79.4,333.9-7,434.3C4509,3158.6,3869.2,3364.1,3682.4,3289.4z"
         id="path12"
         style="fill:#84cae7;fill-opacity:1" /><path
         d="M3206.1,2252.7c-58.4-156.4-102.7-312.9-102.7-347.9c0-198.5,539.4-485.7,922.3-488c233.5-2.3,261.5,23.4,385.3,364.2c56,151.8,98.1,280.2,93.4,284.9c-4.7,4.7-37.4-2.3-72.4-16.4c-277.8-105.1-992.3,170.4-1097.4,422.6C3308.8,2532.9,3301.8,2518.8,3206.1,2252.7z"
         id="path14"
         style="fill:#84cae7;fill-opacity:1" /><path
         d="M2986.6,1640.9c-11.7-25.7-350.2-955-756.5-2064c-504.3-1384.6-730.8-2036-721.5-2071.1c39.7-154.1,415.6-375.9,751.8-446c210.1-42,357.2-25.7,422.6,46.7c25.7,28,375.9,955,777.5,2059.4c401.6,1104.4,735.5,2022,740.2,2036c9.3,23.3-9.3,21-72.4-4.7c-109.7-46.7-228.8-44.4-439,9.3c-315.2,81.7-658.4,298.9-677.1,429.6C3005.3,1685.3,3005.3,1685.3,2986.6,1640.9z"
         id="path16"
         style="fill:#84cae7;fill-opacity:1" /><path
         d="M581.7,725.6c-9.3-7-16.3-389.9-16.3-847.6c0-614.1,7-838.2,28-859.2c16.3-16.3,60.7-28,102.7-28c154.1,0,149.4-14,149.4,446v417.9l63,14c126.1,32.7,135.4,7,142.4-441.3c7-481-21-443.6,319.9-432l210.1,7l296.5,817.2c165.8,450.6,305.9,840.6,312.9,870.9l14,51.4h-803.2C957.6,742,588.7,735,581.7,725.6z"
         id="path18"
         style="fill:#84cae7;fill-opacity:1" /><path
         d="M4165.8-107.9c-170.5-467-308.2-861.6-308.2-875.6c0-39.7,990-35,1025,4.6c14,18.7,28,186.8,30.4,439l7,406.3h81.7h81.7l7-406.3c2.4-252.2,16.4-420.3,30.4-439c21-23.3,112.1-30.4,352.6-30.4c301.2,0,326.9,2.4,317.5,42c-7,21-130.7,415.6-277.8,875.6L5249.1,742h-387.6h-387.6L4165.8-107.9z"
         id="path20"
         style="fill:#84cae7;fill-opacity:1" /><path
         d="M7427.6,366.1C7551.3,62.5,7584,1.8,7588.7,60.2c9.3,88.8,53.7,126.1,137.8,116.7l65.4-7l11.7-385.3c14-378.3,14-389.9,98.1-583.7l84.1-198.5l429.6-7c233.5-2.3,450.6,0,481,7c51.4,11.7,51.4,16.3,51.4,415.6c0,425,9.4,460,105.1,460c95.7,0,105.1-37.3,105.1-457.6c0-441.3-4.7-429.6,151.8-429.6c42,0,88.7,14,102.7,32.7c18.7,21,25.7,270.8,21,868.6l-7,838.2l-1076.4,7L7271.2,742L7427.6,366.1z"
         id="path22"
         style="fill:#84cae7;fill-opacity:1" /><path
         d="M7429.9-1592.9c-165.8-116.7-443.6-210.1-630.4-210.1c-161.1,0-158.8,2.3-86.4-198.5c63-170.4,142.4-221.8,347.9-221.8c294.2,0,625.7,219.5,625.7,413.3c0,58.4-93.4,310.5-114.4,308.2C7565.4-1501.8,7500-1543.9,7429.9-1592.9z"
         id="path24"
         style="fill:#84cae7;fill-opacity:1" /><path
         d="M7707.8-2099.6c-133.1-203.1-450.6-343.2-672.5-294.2c-58.4,11.7-123.8,30.4-144.7,39.7c-30.4,14-51.4-7-88.7-86.4c-116.8-242.8-112.1-574.4,16.3-793.9c149.4-256.8,679.5-791.5,1181.4-1195.5c343.2-273.2,597.7-417.9,597.7-338.6c0,16.4-42,161.1-93.4,324.6c-107.4,329.2-186.8,747.2-186.8,971.3c0,81.7,16.3,270.9,37.4,420.3c35,256.8,35,284.9-2.3,422.6c-44.4,163.4-175.1,364.2-296.5,457.6c-67.7,51.4-259.2,158.8-282.5,158.8C7768.5-2013.2,7738.1-2052.9,7707.8-2099.6z M8074.3-2407.8c67.7-42,149.5-172.8,149.5-240.5c0-16.3-25.7-102.7-58.4-193.8c-42-119.1-58.4-212.5-58.4-343.2c0-100.4-9.4-182.1-21-182.1c-28,0-186.8,214.8-308.2,420.3c-86.4,144.8-102.8,193.8-102.8,294.2c0,98,11.7,135.4,58.4,184.4C7838.5-2356.4,7955.3-2335.4,8074.3-2407.8z"
         id="path26"
         style="fill:#84cae7;fill-opacity:1" /><path
         d="M1476-2942.5c0-46.7-16.3-427.3-37.4-840.6c-18.7-415.6-32.7-758.8-28-763.5c4.7-4.7,238.2,291.9,516,658.4c280.2,364.2,506.7,667.8,502,672.4c-4.7,4.7-58.4,11.7-123.7,14l-114.4,7l-154.1-196.1c-182.1-233.5-233.5-259.2-233.5-119.1c0,109.7-11.7,114.4-84.1,46.7l-51.4-46.7l11.7,252.2l11.7,252.2l-107.4,74.7l-107.4,77V-2942.5z"
         id="path28"
         style="fill:#84cae7;fill-opacity:1" /></g></g></svg>