<?xml version="1.0" encoding="UTF-8" standalone="no"?>
<!-- Svg Vector Icons : http://www.onlinewebfonts.com/icon -->

<svg
   xmlns:dc="http://purl.org/dc/elements/1.1/"
   xmlns:cc="http://creativecommons.org/ns#"
   xmlns:rdf="http://www.w3.org/1999/02/22-rdf-syntax-ns#"
   xmlns:svg="http://www.w3.org/2000/svg"
   xmlns="http://www.w3.org/2000/svg"
   xmlns:sodipodi="http://sodipodi.sourceforge.net/DTD/sodipodi-0.dtd"
   xmlns:inkscape="http://www.inkscape.org/namespaces/inkscape"
   version="1.1"
   x="0px"
   y="0px"
   viewBox="0 0 1000 1000"
   enable-background="new 0 0 1000 1000"
   xml:space="preserve"
   id="svg2"
   inkscape:version="0.91 r13725"
   sodipodi:docname="integration.svg"><defs
     id="defs14" /><sodipodi:namedview
     pagecolor="#ffffff"
     bordercolor="#666666"
     borderopacity="1"
     objecttolerance="10"
     gridtolerance="10"
     guidetolerance="10"
     inkscape:pageopacity="0"
     inkscape:pageshadow="2"
     inkscape:window-width="760"
     inkscape:window-height="480"
     id="namedview12"
     showgrid="false"
     inkscape:zoom="0.236"
     inkscape:cx="38.135593"
     inkscape:cy="500"
     inkscape:window-x="798"
     inkscape:window-y="267"
     inkscape:window-maximized="0"
     inkscape:current-layer="svg2" /><metadata
     id="metadata4"> Svg Vector Icons : http://www.onlinewebfonts.com/icon <rdf:RDF><cc:Work
     rdf:about=""><dc:format>image/svg+xml</dc:format><dc:type
       rdf:resource="http://purl.org/dc/dcmitype/StillImage" /></cc:Work></rdf:RDF></metadata><g
     id="g6"
     style="fill:#84cae7;fill-opacity:1;opacity:1"><g
       transform="translate(0.000000,511.000000) scale(0.100000,-0.100000)"
       id="g8"
       style="fill:#84cae7;fill-opacity:1"><path
         d="M105.7,2491.6l5.7-193.3l248.8-89.9c329.2-122.5,501.4-191.4,788.4-321.5c200.9-89.9,237.3-112.9,229.6-143.5c-13.4-47.8,38.3-68.9,68.9-26.8c15.3,19.1,32.5,24.9,49.8,13.4c23-15.3,23-23,3.8-47.8c-21.1-24.9-19.1-32.5,7.7-42.1c21.1-9.6,40.2-1.9,51.7,17.2c24.9,47.8,74.6,19.1,61.2-36.4c-13.4-49.8,24.9-63.1,63.2-24.9c30.6,30.6,61.2,5.7,49.7-40.2c-11.5-44,28.7-53.6,67-15.3c17.2,17.2,28.7,17.2,44,1.9c15.3-15.3-11.5-88-107.2-273.7c-68.9-137.8-124.4-254.5-120.6-260.3C1629,997,2229.9,658.3,2251,650.6c11.5-3.8,7.7-42.1-11.5-99.5c-15.3-53.6-34.5-122.5-42.1-155l-11.5-61.2l187.5-61.2C2748.5,149.2,2982,11.5,2968.6-78.5c-3.8-24.9-49.7-67-134-116.7c-220.1-132-302.4-235.4-302.4-377c1.9-143.5,134-329.2,294.7-413.3c132-68.9,344.5-72.7,465-9.6c95.7,51.7,183.7,155,214.3,252.6c38.3,134,24.9,210.5-61.2,302.4c-36.4,40.2-36.4,45.9-5.7,89.9c42.1,67,107.2,78.4,185.6,38.3c120.6-61.2,348.3-222,589.4-417.2c317.7-256.4,466.9-361.7,616.2-432.5c151.2-70.8,225.8-72.7,302.4-7.6c105.3,88,124.4,248.8,38.3,334.9c-47.8,47.8-38.3,111,32.5,204.8c53.6,68.9,174.2,137.8,241.1,137.8c93.8,0,195.2-44,275.6-118.6c93.8-86.1,134-187.6,114.8-287.1c-15.3-78.4-63.1-128.2-193.3-193.3c-122.5-61.3-179.9-124.4-193.3-208.6c-30.6-181.8,200.9-336.8,694.7-466.9l187.5-49.7l90,101.4c107.1,116.7,59.3,126.3,463.1-90c145.4-80.4,266-141.6,267.9-137.8c3.8,3.8,68.9,128.2,145.4,279.4c78.5,149.3,145.4,271.7,153.1,271.7c5.8,0,26.8-11.5,45.9-24.9c28.7-21.1,30.6-34.5,13.4-65.1c-28.7-53.6,24.9-76.6,61.3-24.9c34.4,49.8,82.3,21.1,53.6-34.4c-15.3-30.6-13.4-40.2,9.6-49.8c19.1-7.6,42.1,1.9,55.5,19.1c28.7,40.2,72.7,17.2,57.4-30.6c-15.3-45.9,28.7-72.7,51.7-32.5c22.9,42.1,76.6,19.1,63.1-24.9c-15.3-45.9,30.6-72.7,55.5-34.4c17.2,26.8,38.3,21,181.8-51.7c444-222,943.5-428.7,1452.5-602.8c183.7-63.1,336.8-114.8,340.6-114.8c3.9,0,7.7,84.2,7.7,189.5v187.6l-233.5,82.3c-392.3,134-945.4,359.8-1263,511c-262.2,126.3-298.5,149.2-283.2,177.9c23,44-36.4,72.7-61.2,30.6c-23-40.2-76.5-15.3-63.2,26.8c15.3,45.9-28.7,72.7-51.7,32.5c-23-42.1-76.6-19.1-63.2,24.9c13.4,44-21,67-57.4,38.3c-32.5-26.8-68.9-9.6-55.5,26.8c13.4,36.4-26.8,57.4-59.3,30.6c-19.1-15.3-34.4-15.3-63.1,1.9c-36.4,23-30.6,36.3,103.3,294.7l141.6,269.8l-82.3,44c-267.9,145.4-530.1,298.5-530.1,306.2c0,5.8,65.1,170.3,143.5,363.6c78.4,193.3,141.6,355.9,137.8,359.8c-3.8,1.9-99.5,32.5-214.4,63.1c-350.2,99.5-583.7,229.6-583.7,325.3c0,32.5,30.6,53.6,139.7,103.3c216.2,99.5,300.4,208.6,300.4,398.1c0,114.8-67,266-156.9,354C6918.5,1900.3,6851.5,1929,6685,1929c-216.2-1.9-378.9-95.7-449.7-262.2c-44-105.3-36.4-208.6,19.1-290.9c26.8-38.3,47.9-86.1,47.9-105.3c0-44-68.9-116.7-111-116.7c-99.5,0-419.1,204.8-721.5,459.3c-325.3,273.7-589.4,440.2-704.2,440.2c-112.9,0-204.8-88-204.8-197.1c0-23,17.2-70.8,38.3-105.3c21.1-34.4,38.3-80.4,38.3-101.4c0-111-141.6-285.1-264.1-325.3c-181.8-59.3-430.6,65.1-509,254.5c-74.6,176-21.1,283.2,181.8,382.7c164.6,78.5,206.7,118.6,220.1,210.5c15.3,91.9-65.1,179.9-256.4,279.4c-112.9,59.3-511,214.3-549.2,214.3c-1.9,0-101.4-141.6-220.1-317.7c-116.7-174.2-220.1-313.8-225.8-310c-7.7,3.8-120.6,63.1-252.6,134c-132,70.8-273.7,143.5-315.8,158.8c-89.9,38.3-78.5,47.8-271.7-273.7c-86.1-145.4-135.9-212.4-155-204.8c-13.4,5.7-30.6,9.6-34.5,9.6c-3.8,0-3.8,21,3.8,47.8c9.6,36.4,3.8,47.8-19.1,47.8c-17.2,0-36.4-13.4-42.1-28.7c-17.2-44-63.1,1.9-51.7,47.8c11.5,42.1-28.7,53.6-65.1,17.2c-28.7-28.7-65.1-3.8-49.7,32.5c17.2,44-34.5,68.9-61.2,32.5c-28.7-38.3-74.6-13.4-57.4,28.7c15.3,40.2-30.6,65.1-57.4,30.6c-17.2-24.9-59.3-9.6-277.5,89.9c-342.5,155-704.2,302.4-981.7,398L100,2683L105.7,2491.6z M3915.9,2371c290.9-141.6,306.2-199,84.2-304.3c-225.8-107.2-302.4-225.8-273.7-428.7c30.6-225.8,252.6-417.2,509-440.2c187.5-17.2,373.2,95.7,466.9,285.1c61.2,122.5,63.2,206.7,7.7,306.2c-47.8,82.3-34.4,134,38.3,145.4c72.7,11.5,298.5-120.6,526.3-308.1c84.2-70.8,89.9-78.5,65.1-116.7c-74.6-112.9-375.1-637.3-457.4-796.1c-82.3-155-93.8-193.3-86.1-264.1c9.6-91.9,74.6-176.1,132.1-176.1c45.9,0,134,45.9,166.5,84.2c59.3,72.7,183.7,9.6,252.6-128.2c51.7-99.5,40.2-235.4-26.8-369.3c-103.3-202.9-281.3-289-434.4-208.6c-42.1,21.1-63.1,57.4-95.7,153.1C4744.5-59.4,4683.3,5.7,4599.1,5.7c-107.2,0-229.6-176-325.3-465c-38.3-118.7-45.9-128.2-76.5-105.2c-413.4,304.3-570.3,398-654.5,398c-101.4,0-244.9-143.5-244.9-243c0-23,26.8-72.7,57.4-107.2c32.5-36.4,57.4-84.2,57.4-107.2c0-120.6-135.9-277.5-258.3-300.5c-222-40.2-474.6,126.3-499.5,331.1c-13.4,101.4,40.2,177.9,176.1,256.4c231.6,135.9,294.7,233.5,227.7,361.7c-53.6,103.3-283.2,235.4-579.8,334.9c-183.7,59.3-178,38.3-78.5,298.5c114.8,300.4,191.4,350.2,256.4,168.4c51.7-145.4,97.6-206.7,172.2-239.2c135.9-55.5,283.2-21.1,411.4,99.5c237.3,222,273.7,606.6,76.5,817.1c-68.9,74.6-80.4,80.4-179.9,80.4c-93.8,0-112.9-7.7-172.2-65.1l-67-65.1l-11.5,49.8c-9.6,36.4,3.8,80.4,49.8,160.8c65.1,116.7,411.4,648.7,512.9,784.6l57.4,80.4l135.9-45.9C3716.9,2459.1,3841.3,2407.4,3915.9,2371z M7479.2-444c137.8-76.5,246.9-149.2,245-160.7c-3.8-13.4-612.4-1163.5-625.8-1182.7c-1.9-3.8-493.7,260.3-505.2,271.7c-3.8,1.9,24.9,63.2,61.2,134c72.7,134,82.3,195.2,45.9,264.1c-51.7,97.6-149.3,116.7-269.8,51.7c-88.1-47.8-139.7-47.8-218.2,0c-88,53.6-128.2,139.7-114.8,250.7c28.7,245,254.5,476.5,463.1,476.5c93.8,0,135.9-47.8,149.3-174.1c13.4-116.7,74.6-189.5,160.8-189.5c67,0,206.7,143.5,283.2,290.9c32.6,61.2,61.3,111,67,111C7226.6-302.4,7343.3-365.5,7479.2-444z"
         id="path10"
         style="fill:#84cae7;fill-opacity:1" /></g></g></svg>