<?xml version="1.0" encoding="UTF-8" standalone="no"?>
<!-- Svg Vector Icons : http://www.onlinewebfonts.com/icon -->

<svg
   xmlns:dc="http://purl.org/dc/elements/1.1/"
   xmlns:cc="http://creativecommons.org/ns#"
   xmlns:rdf="http://www.w3.org/1999/02/22-rdf-syntax-ns#"
   xmlns:svg="http://www.w3.org/2000/svg"
   xmlns="http://www.w3.org/2000/svg"
   xmlns:sodipodi="http://sodipodi.sourceforge.net/DTD/sodipodi-0.dtd"
   xmlns:inkscape="http://www.inkscape.org/namespaces/inkscape"
   version="1.1"
   x="0px"
   y="0px"
   viewBox="0 0 1000 1000"
   enable-background="new 0 0 1000 1000"
   xml:space="preserve"
   id="svg2"
   inkscape:version="0.91 r13725"
   sodipodi:docname="performance.svg"><defs
     id="defs20" /><sodipodi:namedview
     pagecolor="#ffffff"
     bordercolor="#666666"
     borderopacity="1"
     objecttolerance="10"
     gridtolerance="10"
     guidetolerance="10"
     inkscape:pageopacity="0"
     inkscape:pageshadow="2"
     inkscape:window-width="760"
     inkscape:window-height="480"
     id="namedview18"
     showgrid="false"
     inkscape:zoom="0.236"
     inkscape:cx="-345.33898"
     inkscape:cy="500"
     inkscape:window-x="0"
     inkscape:window-y="0"
     inkscape:window-maximized="0"
     inkscape:current-layer="svg2" /><metadata
     id="metadata4"> Svg Vector Icons : http://www.onlinewebfonts.com/icon <rdf:RDF><cc:Work
     rdf:about=""><dc:format>image/svg+xml</dc:format><dc:type
       rdf:resource="http://purl.org/dc/dcmitype/StillImage" /></cc:Work></rdf:RDF></metadata><g
     id="g6"
     style="fill:#1b998b;fill-opacity:1"><g
       transform="translate(0.000000,511.000000) scale(0.100000,-0.100000)"
       id="g8"
       style="fill:#1b998b;fill-opacity:1"><path
         d="M6911,4524.7c-29.8-32-36.3-87.4-36.3-298.3c0-315.4,6.4-323.9,260-323.9H7301v-95.9c0-106.6,21.3-93.8-240.8-136.4c-213.1-36.2-447.5-115.1-664.9-225.9l-189.7-98L6033,3529.5c-93.8,100.2-187.5,181.1-206.7,181.1c-46.9,0-479.5-375.1-498.7-430.5c-14.9-46.9,25.6-112.9,149.2-251.5c183.3-202.4,176.9-172.6,76.7-300.5c-121.5-159.8-309-547.7-372.9-771.4c-347.3-1227.5,321.8-2510.3,1528-2932.3c973.9-338.8,2086.2-6.4,2702.1,809.8c234.4,313.3,385.7,650,456,1020.8c38.4,200.3,44.7,624.4,12.8,831.1c-53.3,332.4-232.3,765-426.2,1022.9c-46.9,61.8-85.2,123.6-85.2,132.1c0,10.7,68.2,95.9,149.2,189.7c95.9,108.7,149.2,187.5,149.2,219.5c0,38.4-49,98-183.3,219.5c-219.5,200.3-291.9,249.3-345.2,232.3c-23.5-8.5-106.6-89.5-185.4-183.3c-80.9-93.8-151.3-170.5-157.7-170.5c-6.4,0-91.6,42.6-191.8,93.8c-215.2,108.7-443.2,187.5-652.1,223.8c-264.3,46.9-245.1,34.1-245.1,140.6v95.9h168.4c249.3,0,266.4,27.7,253.6,383.6c-4.3,185.4-12.8,221.6-46.9,247.2c-34.1,23.4-151.3,29.8-588.2,29.8C6989.9,4563.1,6943,4560.9,6911,4524.7z M7795.4,2935c524.2-100.2,956.8-428.3,1187-895c117.2-236.5,153.4-385.7,166.2-673.4c19.1-468.8-115.1-843.9-428.4-1187C7936.1-679.2,6533.8-481.1,6009.6,561c-123.6,245.1-166.2,436.9-166.2,741.6c0,300.5,32,445.4,149.2,703.2c228,492.3,707.5,850.3,1265.8,944C7379.9,2971.2,7648.4,2962.7,7795.4,2935z"
         id="path10"
         style="fill:#1b998b;fill-opacity:1" /><path
         d="M8260,2182.7c-17-6.4-172.6-151.3-347.3-323.9l-313.3-311.1h-166.2c-151.3,0-174.8-6.4-245.1-59.7c-117.2-89.5-172.6-208.8-155.6-343.1c8.5-59.7,12.8-149.2,12.8-198.2c-2.1-127.9,21.3-136.4,387.9-140.6c234.4-2.1,424,274.9,336.7,485.9c-14.9,36.2,34.1,93.8,309,372.9c179,181.1,332.4,351.6,341,377.2c8.5,36.2-2.1,61.8-40.5,102.3C8323.9,2199.8,8315.4,2201.9,8260,2182.7z"
         id="path12"
         style="fill:#1b998b;fill-opacity:1" /><path
         d="M3744.4,2587.6c-14.9-57.5-38.4-151.3-55.4-211l-32-108.7l-260-12.8c-221.6-12.8-539.1-63.9-656.3-108.7c-23.4-8.5-63.9,42.6-142.8,176.9L2484.9,2513l-234.4-100.2c-127.9-55.4-238.7-106.6-247.2-112.9c-6.4-6.4,12.8-102.3,42.6-211c29.8-108.7,53.3-200.3,49-202.4c-2.1-2.1-89.5-61.8-196.1-132.1c-104.4-68.2-274.9-200.3-379.3-289.8l-185.4-164.1l-185.4,100.2c-153.4,85.2-187.5,95.9-206.7,70.3c-12.8-17-83.1-108.7-155.6-204.6c-74.6-95.9-134.2-181.1-134.2-191.8c0-8.5,63.9-81,142.8-159.8L937.8,772L837.7,582.3C784.4,480,701.3,279.7,654.4,139.1l-85.2-253.6l-204.6-6.4c-232.3-6.4-206.7,21.3-245.1-279.2C85.4-689.9,72.6-664.3,285.7-719.7l187.5-49l25.6-289.8c12.8-159.8,40.5-358,57.5-441.1c19.2-81,38.3-172.6,44.7-202.5c8.5-46.9-6.4-63.9-149.2-144.9c-89.5-51.2-166.2-100.2-170.5-106.6c-6.4-14.9,179-460.3,202.4-481.6c6.4-6.4,93.8,10.7,196.1,38.4l185.4,51.1l74.6-125.7c95.9-157.7,343.1-475.2,445.4-571.1c42.6-40.5,76.7-83.1,76.7-91.6c0-10.7-38.3-85.2-85.2-168.3c-46.9-83.1-85.2-157.7-85.2-166.2c0-17,394.2-321.8,419.8-321.8c8.5,0,74.6,57.5,147,130l132.1,130l215.2-108.7c119.3-59.7,326.1-142.8,460.3-185.4l245.1-78.9V-4091c0-217.4-27.7-193.9,274.9-232.3c270.6-32,272.8-32,287.7,51.2c8.5,40.5,27.7,121.4,44.8,179l32,106.6l166.2,14.9c277,21.3,520,57.5,664.9,98c74.6,19.2,144.9,32,153.4,27.7c8.5-6.4,55.4-76.7,104.4-157.7c49-83.1,98-149.2,112.9-149.2c25.6,0,441.1,168.4,464.6,189.7c8.5,8.5-6.4,95.9-34.1,198.2l-51.1,183.3l215.2,144.9c119.3,81,294.1,219.5,387.8,311.1l170.5,162l168.4-93.7c91.7-51.2,172.6-93.8,179-93.8c12.8,2.1,112.9,130,279.2,355.9l53.3,72.4l-140.6,142.8l-142.8,142.8l104.4,211c57.6,117.2,127.9,281.3,157.7,366.5l51.2,153.4l-189.7,34.1c-102.3,19.2-272.8,63.9-375,98c-102.3,34.1-191.8,55.4-198.2,46.9c-8.5-8.5-32-61.8-53.3-121.5c-19.2-57.5-78.8-185.4-127.9-281.3C5040-3132,3565.3-3545.5,2399.7-2846.5c-976,583.9-1385.2,1824.2-950.4,2879c281.3,679.8,839.6,1169.9,1549.2,1368.1c315.4,85.2,850.3,93.8,1159.3,17c40.5-10.7,46.9,8.5,81,176.9c21.3,102.3,70.3,270.6,108.7,372.9c38.4,102.3,66.1,191.8,59.7,198.2c-6.4,6.4-29.8,10.7-51.2,10.7c-34.1,0-38.3,21.3-38.3,223.8v221.6l-68.2,10.7c-123.6,21.3-402.8,55.4-443.2,55.4C3778.4,2687.8,3761.4,2660.1,3744.4,2587.6z"
         id="path14"
         style="fill:#1b998b;fill-opacity:1" /><path
         d="M3727.3,305.3c-17-42.6-40.5-98-49-123.6c-14.9-38.4-40.5-46.9-185.4-57.5c-179-14.9-187.5-10.7-289.8,134.2l-32,46.9l-136.4-76.7c-215.2-121.5-200.3-100.2-147-232.3l49-117.2l-98-121.5c-53.3-63.9-98-125.7-98-136.4c0-8.5-57.5-8.5-130,2.1c-70.3,10.7-134.2,17-138.5,10.7c-21.3-19.2-95.9-321.8-85.2-345.2c4.3-14.9,57.5-42.6,115.1-63.9c104.4-38.3,106.6-38.3,119.3-149.2c6.4-59.7,17.1-138.5,25.6-174.7c10.7-57.5,4.2-70.3-85.2-134.3c-53.3-40.5-98-78.8-98-87.4c0-14.9,157.7-289.8,179-311.1c6.4-6.4,63.9,10.7,127.9,36.2l117.2,49l81-72.4c44.7-40.5,104.4-87.4,132.1-106.5c49-32,51.1-38.4,29.8-164.1l-21.3-132.1l108.7-32c59.7-14.9,144.9-38.4,187.5-49l76.7-21.3l46.9,123.6l44.7,121.5l174.7,25.6c191.8,27.7,176.9,34.1,287.7-119.3l40.5-55.4l136.4,78.9c74.6,40.5,149.2,85.2,164.1,95.9c23.4,14.9,19.2,38.4-19.2,130c-32,72.5-40.5,121.5-27.7,138.5c10.7,12.8,57.5,76.7,102.3,136.4l83.1,112.9l132.1-14.9l132.1-12.8l46.9,172.6c25.6,95.9,40.5,181.1,34.1,187.5c-6.4,8.5-63.9,34.1-123.6,57.5l-110.8,44.7l-17,170.5c-17.1,183.3-12.8,187.6,134.2,292l46.9,32L4699-248.8c-51.1,85.2-93.8,157.7-93.8,161.9c-2.1,2.1-57.5-14.9-123.6-40.5l-117.2-44.8l-106.6,81c-57.5,46.9-119.3,93.8-138.5,104.4c-27.7,17-29.8,40.5-14.9,138.5c10.7,63.9,12.8,121.5,4.3,130c-8.5,6.4-89.5,34.1-181.1,57.5l-166.2,44.8L3727.3,305.3z M3838.1-562c87.4-66.1,159.8-200.3,159.8-298.3c0-159.8-151.3-341-306.9-366.5c-228-36.2-439,138.5-439,364.4c0,144.9,91.6,283.4,223.8,345.2C3578.1-468.3,3746.5-489.6,3838.1-562z"
         id="path16"
         style="fill:#1b998b;fill-opacity:1" /></g></g></svg>